  0
SECTION
  2
HEADER
  9
$ACADVER
  1
AC1024
  9
$ACADMAINTVER
 70
     6
  9
$DWGCODEPAGE
  3
ANSI_1252
  9
$INSBASE
 10
0.0
 20
0.0
 30
0.0
  9
$EXTMIN
 10
1.000000000000000E+20
 20
1.000000000000000E+20
 30
1.000000000000000E+20
  9
$EXTMAX
 10
-1.000000000000000E+20
 20
-1.000000000000000E+20
 30
-1.000000000000000E+20
  9
$LIMMIN
 10
0.0
 20
0.0
  9
$LIMMAX
 10
12.0
 20
9.0
  9
$ORTHOMODE
 70
     0
  9
$REGENMODE
 70
     1
  9
$FILLMODE
 70
     1
  9
$QTEXTMODE
 70
     0
  9
$MIRRTEXT
 70
     1
  9
$LTSCALE
 40
1.0
  9
$ATTMODE
 70
     1
  9
$TEXTSIZE
 40
0.2
  9
$TRACEWID
 40
0.05
  9
$TEXTSTYLE
  7
Standard
  9
$CLAYER
  8
0
  9
$CELTYPE
  6
ByLayer
  9
$CECOLOR
 62
   256
  9
$CELTSCALE
 40
1.0
  9
$DISPSILH
 70
     0
  9
$DIMSCALE
 40
1.0
  9
$DIMASZ
 40
0.18
  9
$DIMEXO
 40
0.0625
  9
$DIMDLI
 40
0.38
  9
$DIMRND
 40
0.0
  9
$DIMDLE
 40
0.0
  9
$DIMEXE
 40
0.18
  9
$DIMTP
 40
0.0
  9
$DIMTM
 40
0.0
  9
$DIMTXT
 40
0.18
  9
$DIMCEN
 40
0.09
  9
$DIMTSZ
 40
0.0
  9
$DIMTOL
 70
     0
  9
$DIMLIM
 70
     0
  9
$DIMTIH
 70
     1
  9
$DIMTOH
 70
     1
  9
$DIMSE1
 70
     0
  9
$DIMSE2
 70
     0
  9
$DIMTAD
 70
     0
  9
$DIMZIN
 70
     0
  9
$DIMBLK
  1

  9
$DIMASO
 70
     1
  9
$DIMSHO
 70
     1
  9
$DIMPOST
  1

  9
$DIMAPOST
  1

  9
$DIMALT
 70
     0
  9
$DIMALTD
 70
     2
  9
$DIMALTF
 40
25.4
  9
$DIMLFAC
 40
1.0
  9
$DIMTOFL
 70
     0
  9
$DIMTVP
 40
0.0
  9
$DIMTIX
 70
     0
  9
$DIMSOXD
 70
     0
  9
$DIMSAH
 70
     0
  9
$DIMBLK1
  1

  9
$DIMBLK2
  1

  9
$DIMSTYLE
  2
Standard
  9
$DIMCLRD
 70
     0
  9
$DIMCLRE
 70
     0
  9
$DIMCLRT
 70
     0
  9
$DIMTFAC
 40
1.0
  9
$DIMGAP
 40
0.09
  9
$DIMJUST
 70
     0
  9
$DIMSD1
 70
     0
  9
$DIMSD2
 70
     0
  9
$DIMTOLJ
 70
     1
  9
$DIMTZIN
 70
     0
  9
$DIMALTZ
 70
     0
  9
$DIMALTTZ
 70
     0
  9
$DIMUPT
 70
     0
  9
$DIMDEC
 70
     4
  9
$DIMTDEC
 70
     4
  9
$DIMALTU
 70
     2
  9
$DIMALTTD
 70
     2
  9
$DIMTXSTY
  7
Standard
  9
$DIMAUNIT
 70
     0
  9
$DIMADEC
 70
     0
  9
$DIMALTRND
 40
0.0
  9
$DIMAZIN
 70
     0
  9
$DIMDSEP
 70
    46
  9
$DIMATFIT
 70
     3
  9
$DIMFRAC
 70
     0
  9
$DIMLDRBLK
  1

  9
$DIMLUNIT
 70
     2
  9
$DIMLWD
 70
    -2
  9
$DIMLWE
 70
    -2
  9
$DIMTMOVE
 70
     0
  9
$DIMFXL
 40
1.0
  9
$DIMFXLON
 70
     0
  9
$DIMJOGANG
 40
0.7853981633974483
  9
$DIMTFILL
 70
     0
  9
$DIMTFILLCLR
 70
     0
  9
$DIMARCSYM
 70
     0
  9
$DIMLTYPE
  6

  9
$DIMLTEX1
  6

  9
$DIMLTEX2
  6

  9
$DIMTXTDIRECTION
 70
     0
  9
$LUNITS
 70
     2
  9
$LUPREC
 70
     4
  9
$SKETCHINC
 40
0.1
  9
$FILLETRAD
 40
0.5
  9
$AUNITS
 70
     0
  9
$AUPREC
 70
     0
  9
$MENU
  1
.
  9
$ELEVATION
 40
0.0
  9
$PELEVATION
 40
0.0
  9
$THICKNESS
 40
0.0
  9
$LIMCHECK
 70
     0
  9
$CHAMFERA
 40
0.5
  9
$CHAMFERB
 40
0.5
  9
$CHAMFERC
 40
1.0
  9
$CHAMFERD
 40
0.0
  9
$SKPOLY
 70
     0
  9
$TDCREATE
 40
2457966.878786713
  9
$TDUCREATE
 40
2457967.17045338
  9
$TDUPDATE
 40
2457966.878786748
  9
$TDUUPDATE
 40
2457967.170453414
  9
$TDINDWG
 40
0.0000000116
  9
$TDUSRTIMER
 40
0.0000000116
  9
$USRTIMER
 70
     1
  9
$ANGBASE
 50
0.0
  9
$ANGDIR
 70
     0
  9
$PDMODE
 70
     0
  9
$PDSIZE
 40
0.0
  9
$PLINEWID
 40
0.0
  9
$SPLFRAME
 70
     0
  9
$SPLINETYPE
 70
     6
  9
$SPLINESEGS
 70
     8
  9
$HANDSEED
  5
5B
  9
$SURFTAB1
 70
     6
  9
$SURFTAB2
 70
     6
  9
$SURFTYPE
 70
     6
  9
$SURFU
 70
     6
  9
$SURFV
 70
     6
  9
$UCSBASE
  2

  9
$UCSNAME
  2

  9
$UCSORG
 10
0.0
 20
0.0
 30
0.0
  9
$UCSXDIR
 10
1.0
 20
0.0
 30
0.0
  9
$UCSYDIR
 10
0.0
 20
1.0
 30
0.0
  9
$UCSORTHOREF
  2

  9
$UCSORTHOVIEW
 70
     0
  9
$UCSORGTOP
 10
0.0
 20
0.0
 30
0.0
  9
$UCSORGBOTTOM
 10
0.0
 20
0.0
 30
0.0
  9
$UCSORGLEFT
 10
0.0
 20
0.0
 30
0.0
  9
$UCSORGRIGHT
 10
0.0
 20
0.0
 30
0.0
  9
$UCSORGFRONT
 10
0.0
 20
0.0
 30
0.0
  9
$UCSORGBACK
 10
0.0
 20
0.0
 30
0.0
  9
$PUCSBASE
  2

  9
$PUCSNAME
  2

  9
$PUCSORG
 10
0.0
 20
0.0
 30
0.0
  9
$PUCSXDIR
 10
1.0
 20
0.0
 30
0.0
  9
$PUCSYDIR
 10
0.0
 20
1.0
 30
0.0
  9
$PUCSORTHOREF
  2

  9
$PUCSORTHOVIEW
 70
     0
  9
$PUCSORGTOP
 10
0.0
 20
0.0
 30
0.0
  9
$PUCSORGBOTTOM
 10
0.0
 20
0.0
 30
0.0
  9
$PUCSORGLEFT
 10
0.0
 20
0.0
 30
0.0
  9
$PUCSORGRIGHT
 10
0.0
 20
0.0
 30
0.0
  9
$PUCSORGFRONT
 10
0.0
 20
0.0
 30
0.0
  9
$PUCSORGBACK
 10
0.0
 20
0.0
 30
0.0
  9
$USERI1
 70
     0
  9
$USERI2
 70
     0
  9
$USERI3
 70
     0
  9
$USERI4
 70
     0
  9
$USERI5
 70
     0
  9
$USERR1
 40
0.0
  9
$USERR2
 40
0.0
  9
$USERR3
 40
0.0
  9
$USERR4
 40
0.0
  9
$USERR5
 40
0.0
  9
$WORLDVIEW
 70
     1
  9
$SHADEDGE
 70
     3
  9
$SHADEDIF
 70
    70
  9
$TILEMODE
 70
     1
  9
$MAXACTVP
 70
    64
  9
$PINSBASE
 10
0.0
 20
0.0
 30
0.0
  9
$PLIMCHECK
 70
     0
  9
$PEXTMIN
 10
1.000000000000000E+20
 20
1.000000000000000E+20
 30
1.000000000000000E+20
  9
$PEXTMAX
 10
-1.000000000000000E+20
 20
-1.000000000000000E+20
 30
-1.000000000000000E+20
  9
$PLIMMIN
 10
0.0
 20
0.0
  9
$PLIMMAX
 10
12.0
 20
9.0
  9
$UNITMODE
 70
     0
  9
$VISRETAIN
 70
     1
  9
$PLINEGEN
 70
     0
  9
$PSLTSCALE
 70
     1
  9
$TREEDEPTH
 70
  3020
  9
$CMLSTYLE
  2
Standard
  9
$CMLJUST
 70
     0
  9
$CMLSCALE
 40
1.0
  9
$PROXYGRAPHICS
 70
     1
  9
$MEASUREMENT
 70
     0
  9
$CELWEIGHT
370
    -1
  9
$ENDCAPS
280
     0
  9
$JOINSTYLE
280
     0
  9
$LWDISPLAY
290
     1
  9
$INSUNITS
 70
     1
  9
$HYPERLINKBASE
  1

  9
$STYLESHEET
  1

  9
$XEDIT
290
     1
  9
$CEPSNTYPE
380
     0
  9
$PSTYLEMODE
290
     1
  9
$FINGERPRINTGUID
  2
{F97D834F-B988-4E7F-BB72-B1F55DE503E8}
  9
$VERSIONGUID
  2
{FAEB1C32-E019-11D5-929B-00C0DF256EC4}
  9
$EXTNAMES
290
     1
  9
$PSVPSCALE
 40
0.0
  9
$OLESTARTUP
290
     0
  9
$SORTENTS
280
   127
  9
$INDEXCTL
280
     0
  9
$HIDETEXT
280
     1
  9
$XCLIPFRAME
280
     2
  9
$HALOGAP
280
     0
  9
$OBSCOLOR
 70
   257
  9
$OBSLTYPE
280
     0
  9
$INTERSECTIONDISPLAY
280
     0
  9
$INTERSECTIONCOLOR
 70
   257
  9
$DIMASSOC
280
     2
  9
$PROJECTNAME
  1

  9
$CAMERADISPLAY
290
     0
  9
$LENSLENGTH
 40
50.0
  9
$CAMERAHEIGHT
 40
0.0
  9
$STEPSPERSEC
 40
2.0
  9
$STEPSIZE
 40
6.0
  9
$3DDWFPREC
 40
2.0
  9
$PSOLWIDTH
 40
0.25
  9
$PSOLHEIGHT
 40
4.0
  9
$LOFTANG1
 40
1.570796326794897
  9
$LOFTANG2
 40
1.570796326794897
  9
$LOFTMAG1
 40
0.0
  9
$LOFTMAG2
 40
0.0
  9
$LOFTPARAM
 70
     7
  9
$LOFTNORMALS
280
     1
  9
$LATITUDE
 40
37.795
  9
$LONGITUDE
 40
-122.394
  9
$NORTHDIRECTION
 40
0.0
  9
$TIMEZONE
 70
 -8000
  9
$LIGHTGLYPHDISPLAY
280
     1
  9
$TILEMODELIGHTSYNCH
280
     1
  9
$CMATERIAL
347
3C
  9
$SOLIDHIST
280
     1
  9
$SHOWHIST
280
     1
  9
$DWFFRAME
280
     2
  9
$DGNFRAME
280
     2
  9
$REALWORLDSCALE
290
     1
  9
$INTERFERECOLOR
 62
   256
  9
$CSHADOW
280
     0
  9
$SHADOWPLANELOCATION
 40
0.0
  0
ENDSEC
  0
SECTION
  2
CLASSES
  0
CLASS
  1
ACDBDICTIONARYWDFLT
  2
AcDbDictionaryWithDefault
  3
ObjectDBX Classes
 90
        0
 91
        4
280
     0
281
     0
  0
CLASS
  1
VISUALSTYLE
  2
AcDbVisualStyle
  3
ObjectDBX Classes
 90
     4095
 91
        4
280
     0
281
     0
  0
CLASS
  1
MATERIAL
  2
AcDbMaterial
  3
ObjectDBX Classes
 90
     1153
 91
        4
280
     0
281
     0
  0
CLASS
  1
SUN
  2
AcDbSun
  3
SCENEOE
 90
     1024
 91
        4
280
     0
281
     0
  0
ENDSEC
  0
SECTION
  2
TABLES
  0
TABLE
  2
VPORT
  5
8
330
0
100
AcDbSymbolTable
 70
     1
  0
VPORT
  5
29
330
8
100
AcDbSymbolTableRecord
100
AcDbViewportTableRecord
  2
*Active
 70
     0
 10
0.0
 20
0.0
 11
1.0
 21
1.0
 12
0.0
 22
0.0
 13
0.0
 23
0.0
 14
0.5
 24
0.5
 15
0.5
 25
0.5
 16
0.0
 26
0.0
 36
1.0
 17
0.0
 27
0.0
 37
0.0
 40
215.899999946025
 41
1.294117647058823
 42
50.0
 43
0.0
 44
0.0
 50
0.0
 51
0.0
 71
     0
 72
   100
 73
     1
 74
     3
 75
     0
 76
     0
 77
     0
 78
     0
281
     0
 65
     1
110
0.0
120
0.0
130
0.0
111
1.0
121
0.0
131
0.0
112
0.0
122
1.0
132
0.0
 79
     0
146
0.0
 60
     3
 61
     5
292
     1
282
     1
141
0.0
142
0.0
 63
   250
361
3F
  0
ENDTAB
  0
TABLE
  2
LTYPE
  5
5
330
0
100
AcDbSymbolTable
 70
     1
  0
LTYPE
  5
14
330
5
100
AcDbSymbolTableRecord
100
AcDbLinetypeTableRecord
  2
ByBlock
 70
     0
  3

 72
    65
 73
     0
 40
0.0
  0
LTYPE
  5
15
330
5
100
AcDbSymbolTableRecord
100
AcDbLinetypeTableRecord
  2
ByLayer
 70
     0
  3

 72
    65
 73
     0
 40
0.0
  0
LTYPE
  5
16
330
5
100
AcDbSymbolTableRecord
100
AcDbLinetypeTableRecord
  2
Continuous
 70
     0
  3
Solid line
 72
    65
 73
     0
 40
0.0
  0
ENDTAB
  0
TABLE
  2
LAYER
  5
2
330
0
100
AcDbSymbolTable
 70
     2
  0
LAYER
  5
10
330
2
100
AcDbSymbolTableRecord
100
AcDbLayerTableRecord
  2
0
 70
     0
 62
     7
  6
Continuous
370
    -3
390
F
347
3E
  0
LAYER
  5
40
330
2
100
AcDbSymbolTableRecord
100
AcDbLayerTableRecord
  2
Layer 1
 70
     0
 62
     7
  6
Continuous
370
    -3
390
F
347
3E
  0
ENDTAB
  0
TABLE
  2
STYLE
  5
3
330
0
100
AcDbSymbolTable
 70
     1
  0
STYLE
  5
11
330
3
100
AcDbSymbolTableRecord
100
AcDbTextStyleTableRecord
  2
Standard
 70
     0
 40
0.0
 41
1.0
 50
0.0
 71
     0
 42
0.2
  3
txt
  4

  0
ENDTAB
  0
TABLE
  2
VIEW
  5
6
330
0
100
AcDbSymbolTable
 70
     0
  0
ENDTAB
  0
TABLE
  2
UCS
  5
7
330
0
100
AcDbSymbolTable
 70
     0
  0
ENDTAB
  0
TABLE
  2
APPID
  5
9
330
0
100
AcDbSymbolTable
 70
     1
  0
APPID
  5
12
330
9
100
AcDbSymbolTableRecord
100
AcDbRegAppTableRecord
  2
ACAD
 70
     0
  0
ENDTAB
  0
TABLE
  2
DIMSTYLE
  5
A
330
0
100
AcDbSymbolTable
 70
     1
100
AcDbDimStyleTable
  0
DIMSTYLE
105
27
330
A
100
AcDbSymbolTableRecord
100
AcDbDimStyleTableRecord
  2
Standard
 70
     0
178
     0
340
11
  0
ENDTAB
  0
TABLE
  2
BLOCK_RECORD
  5
1
330
0
100
AcDbSymbolTable
 70
     1
  0
BLOCK_RECORD
  5
1F
330
1
100
AcDbSymbolTableRecord
100
AcDbBlockTableRecord
  2
*Model_Space
340
22
 70
     0
280
     1
281
     0
  0
BLOCK_RECORD
  5
1B
330
1
100
AcDbSymbolTableRecord
100
AcDbBlockTableRecord
  2
*Paper_Space
340
1E
 70
     0
280
     1
281
     0
  0
BLOCK_RECORD
  5
23
330
1
100
AcDbSymbolTableRecord
100
AcDbBlockTableRecord
  2
*Paper_Space0
340
26
 70
     0
280
     1
281
     0
  0
ENDTAB
  0
ENDSEC
  0
SECTION
  2
BLOCKS
  0
BLOCK
  5
20
330
1F
100
AcDbEntity
  8
0
100
AcDbBlockBegin
  2
*Model_Space
 70
     0
 10
0.0
 20
0.0
 30
0.0
  3
*Model_Space
  1

  0
ENDBLK
  5
21
330
1F
100
AcDbEntity
  8
0
100
AcDbBlockEnd
  0
BLOCK
  5
1C
330
1B
100
AcDbEntity
 67
     1
  8
0
100
AcDbBlockBegin
  2
*Paper_Space
 70
     0
 10
0.0
 20
0.0
 30
0.0
  3
*Paper_Space
  1

  0
ENDBLK
  5
1D
330
1B
100
AcDbEntity
 67
     1
  8
0
100
AcDbBlockEnd
  0
BLOCK
  5
24
330
23
100
AcDbEntity
  8
0
100
AcDbBlockBegin
  2
*Paper_Space0
 70
     0
 10
0.0
 20
0.0
 30
0.0
  3
*Paper_Space0
  1

  0
ENDBLK
  5
25
330
23
100
AcDbEntity
  8
0
100
AcDbBlockEnd
  0
ENDSEC
  0
SECTION
  2
ENTITIES
  0
SPLINE
  5
41
330
1F
100
AcDbEntity
  8
Layer 1
 62
     1
370
    35
100
AcDbSpline
210
0.0
220
0.0
230
1.0
 70
    11
 71
     3
 72
    71
 73
    67
 74
     0
 42
0.0000000001
 43
0.0000000001
 12
1.0
 22
0.0
 32
0.0
 13
1.0
 23
0.0
 33
0.0
 40
0.0
 40
0.0
 40
0.0
 40
0.0
 40
1.0
 40
1.0
 40
1.0
 40
2.0
 40
2.0
 40
2.0
 40
3.0
 40
3.0
 40
3.0
 40
4.0
 40
4.0
 40
4.0
 40
5.0
 40
5.0
 40
5.0
 40
6.0
 40
6.0
 40
6.0
 40
7.0
 40
7.0
 40
7.0
 40
8.0
 40
8.0
 40
8.0
 40
9.0
 40
9.0
 40
9.0
 40
10.0
 40
10.0
 40
10.0
 40
11.0
 40
11.0
 40
11.0
 40
12.0
 40
12.0
 40
12.0
 40
13.0
 40
13.0
 40
13.0
 40
14.0
 40
14.0
 40
14.0
 40
15.0
 40
15.0
 40
15.0
 40
16.0
 40
16.0
 40
16.0
 40
17.0
 40
17.0
 40
17.0
 40
18.0
 40
18.0
 40
18.0
 40
19.0
 40
19.0
 40
19.0
 40
20.0
 40
20.0
 40
20.0
 40
21.0
 40
21.0
 40
21.0
 40
22.0
 40
22.0
 40
22.0
 40
22.0
 10
-8.101044597213129
 20
25.06638591119493
 30
0.0
 10
-11.51631799762714
 20
23.95402351534236
 30
0.0
 10
-14.57095416943093
 20
22.23335137700952
 30
0.0
 10
-17.26492639079673
 20
19.90436949619642
 30
0.0
 10
-19.87200538827089
 20
17.65359998530676
 30
0.0
 10
-21.96202240817584
 20
14.99002558595743
 30
0.0
 10
-23.53495137972181
 20
11.91367236893786
 30
0.0
 10
-25.10788035126811
 20
8.837319151918296
 30
0.0
 10
-26.04210103922268
 20
5.587178048927361
 30
0.0
 10
-26.33756130200664
 20
2.163196918384588
 30
0.0
 10
-26.65041078170326
 20
-1.391112091241674
 30
0.0
 10
-26.25499511015656
 20
-4.875916374795226
 30
0.0
 10
-25.15134035815599
 20
-8.291189861486636
 30
0.0
 10
-24.0476856061551
 20
-11.71514492123901
 30
0.0
 10
-22.33136728974794
 20
-14.77410892134593
 30
0.0
 10
-20.00235933814445
 20
-17.46810793259552
 30
0.0
 10
-17.75158982725543
 20
-20.06650535700807
 30
0.0
 10
-15.08801613393772
 20
-22.15216855498734
 30
0.0
 10
-12.01166299463368
 20
-23.72509752653331
 30
0.0
 10
-8.926628282487492
 20
-25.29802649807929
 30
0.0
 10
-5.672107368996565
 20
-26.2365749371701
 30
0.0
 10
-2.248152395740084
 20
-26.54074284380543
 30
0.0
 10
1.297474951254612
 20
-26.85359232350237
 30
0.0
 10
4.782279146774756
 20
-26.45817665195568
 30
0.0
 10
8.206234120031237
 20
-25.35452189995479
 30
0.0
 10
11.62150752044525
 20
-24.24215950410253
 30
0.0
 10
14.67611907939693
 20
-22.52148736576969
 30
0.0
 10
17.37011656465349
 20
-20.19250548495596
 30
0.0
 10
19.97719549626719
 20
-17.94173597406693
 30
0.0
 10
22.06718803723652
 20
-15.27816157471728
 30
0.0
 10
23.64014139518479
 20
-12.20180835769836
 30
0.0
 10
25.21307032699548
 20
-9.125455140678149
 30
0.0
 10
26.15161874237647
 20
-5.87528796689746
 30
0.0
 10
26.45578664132713
 20
-2.451332907145082
 30
0.0
 10
26.76863611312123
 20
1.102976102481501
 30
0.0
 10
26.36886838306926
 20
4.587780386035374
 30
0.0
 10
25.25653033278509
 20
8.003053872726783
 30
0.0
 10
23.95299086697824
 20
12.05270789187336
 30
0.0
 10
21.79779692658115
 20
15.58097218231511
 30
0.0
 10
18.79097458238292
 20
18.58779460247157
 30
0.0
 10
15.77544459455344
 20
21.59461702262835
 30
0.0
 10
12.24720646403247
 20
23.7541648393964
 30
0.0
 10
8.206234120031237
 20
25.06638591119493
 30
0.0
 10
7.424110440547127
 20
25.30970459402909
 30
0.0
 10
6.733234523669401
 20
25.71380183863771
 30
0.0
 10
6.133606369398056
 20
26.27867764502016
 30
0.0
 10
5.533978215127035
 20
26.83484580755158
 30
0.0
 10
5.082093223910748
 20
27.49096937884604
 30
0.0
 10
4.777925324959125
 20
28.24702228811348
 30
0.0
 10
4.256509538636065
 20
29.5505617868504
 30
0.0
 10
3.34836083537232
 20
30.4804286528796
 30
0.0
 10
2.05352784142252
 20
31.03659681541037
 30
0.0
 10
0.7499883756159916
 20
31.58408340488017
 30
0.0
 10
-0.5491972683755487
 20
31.59711879986746
 30
0.0
 10
-1.844055161340249
 20
31.07570300037257
 30
0.0
 10
-2.487143321401204
 20
30.81499510062544
 30
0.0
 10
-3.056346864540074
 20
30.4413224679174
 30
0.0
 10
-3.551691861546934
 20
29.9546590314587
 30
0.0
 10
-4.038355285711323
 20
29.45931402193871
 30
0.0
 10
-4.412027908979647
 20
28.89011046442033
 30
0.0
 10
-4.672735802140696
 20
28.24702228811348
 30
0.0
 10
-4.976903701092319
 20
27.49096937884604
 30
0.0
 10
-5.428788692308926
 20
26.83484580755158
 30
0.0
 10
-6.028416846579948
 20
26.27867764502016
 30
0.0
 10
-6.628045000851613
 20
25.71380183863771
 30
0.0
 10
-7.318920917728698
 20
25.30970459402909
 30
0.0
 10
-8.101044597213129
 20
25.06638591119493
 30
0.0
  0
SPLINE
  5
42
330
1F
100
AcDbEntity
  8
Layer 1
 62
     1
370
    35
100
AcDbSpline
210
0.0
220
0.0
230
1.0
 70
    11
 71
     3
 72
    29
 73
    25
 74
     0
 42
0.0000000001
 43
0.0000000001
 12
1.0
 22
0.0
 32
0.0
 13
1.0
 23
0.0
 33
0.0
 40
0.0
 40
0.0
 40
0.0
 40
0.0
 40
1.0
 40
1.0
 40
1.0
 40
2.0
 40
2.0
 40
2.0
 40
3.0
 40
3.0
 40
3.0
 40
4.0
 40
4.0
 40
4.0
 40
5.0
 40
5.0
 40
5.0
 40
6.0
 40
6.0
 40
6.0
 40
7.0
 40
7.0
 40
7.0
 40
8.0
 40
8.0
 40
8.0
 40
8.0
 10
-2.209046166687387
 20
26.3438559513169
 30
0.0
 10
-2.328255365821092
 20
26.53703052961746
 30
0.0
 10
-2.193657961374903
 20
26.84772463574775
 30
0.0
 10
-2.044807833555986
 20
27.20921872033322
 30
0.0
 10
-1.934009902336488
 20
27.47829941043803
 30
0.0
 10
-1.767153969506958
 20
27.72429386974084
 30
0.0
 10
-1.544241461551527
 20
27.94720780418072
 30
0.0
 10
-1.101038324794393
 20
28.38173220711407
 30
0.0
 10
-0.5665858051931004
 20
28.5989801437327
 30
0.0
 10
0.0591118177970721
 20
28.5989801437327
 30
0.0
 10
0.6761050302369169
 20
28.5989801437327
 30
0.0
 10
1.206226741835433
 20
28.38173220711407
 30
0.0
 10
1.649431305077339
 20
27.94720780418072
 30
0.0
 10
1.872345239517222
 20
27.72429386974084
 30
0.0
 10
2.03919974586198
 20
27.47829941043803
 30
0.0
 10
2.149996250597026
 20
27.20922442627295
 30
0.0
 10
2.297208060566336
 20
26.85171308738656
 30
0.0
 10
2.434962275984445
 20
26.53691641082926
 30
0.0
 10
2.3142360102132
 20
26.3438559513169
 30
0.0
 10
2.10988207014783
 20
26.01705968420705
 30
0.0
 10
1.389528618493583
 20
26.3858516652819
 30
0.0
 10
0.124690179292139
 20
26.39623076904578
 30
0.0
 10
-1.224808709234124
 20
26.40730599741642
 30
0.0
 10
-1.997200328193647
 20
26.00056381340915
 30
0.0
 10
-2.209046166687387
 20
26.3438559513169
 30
0.0
  0
SPLINE
  5
43
330
1F
100
AcDbEntity
  8
Layer 1
 62
   163
370
    35
100
AcDbSpline
210
0.0
220
0.0
230
1.0
 70
     8
 71
     3
 72
    23
 73
    19
 74
     0
 42
0.0000000001
 43
0.0000000001
 12
1.0
 22
0.0
 32
0.0
 13
1.0
 23
0.0
 33
0.0
 40
0.0
 40
0.0
 40
0.0
 40
0.0
 40
1.0
 40
1.0
 40
1.0
 40
2.0
 40
2.0
 40
2.0
 40
3.0
 40
3.0
 40
3.0
 40
4.0
 40
4.0
 40
4.0
 40
5.0
 40
5.0
 40
5.0
 40
6.0
 40
6.0
 40
6.0
 40
6.0
 10
15.89832882651651
 20
13.31238898581578
 30
0.0
 10
15.96116926680201
 20
13.39379871677459
 30
0.0
 10
16.02673976144064
 20
13.47784012181592
 30
0.0
 10
16.09508950060061
 20
13.5644886058547
 30
0.0
 10
16.28366001162594
 20
13.81043945467315
 30
0.0
 10
16.56239610155029
 20
14.17528294380986
 30
0.0
 10
16.93132236545777
 20
14.65896988309599
 30
0.0
 10
17.17727320806297
 20
14.96230106494359
 30
0.0
 10
17.47241421918895
 20
15.13446665911673
 30
0.0
 10
17.81674539883604
 20
15.17546666561445
 30
0.0
 10
17.98891098865942
 20
15.18365682888016
 30
0.0
 10
18.11188640996202
 20
15.15906174399828
 30
0.0
 10
18.18567166274352
 20
15.10168141096882
 30
0.0
 10
18.25126675246657
 20
15.02789615632351
 30
0.0
 10
18.27586183672696
 20
14.90492073191444
 30
0.0
 10
18.25945691552501
 20
14.73275513774162
 30
0.0
 10
18.15960087342764
 20
13.55949580362405
 30
0.0
 10
17.81116231470896
 20
12.5080559249254
 30
0.0
 10
17.21416583445372
 20
11.57843550164666
 30
0.0
  0
SPLINE
  5
44
330
1F
100
AcDbEntity
  8
Layer 1
 62
   163
370
    35
100
AcDbSpline
210
0.0
220
0.0
230
1.0
 70
     8
 71
     3
 72
    14
 73
    10
 74
     0
 42
0.0000000001
 43
0.0000000001
 12
1.0
 22
0.0
 32
0.0
 13
1.0
 23
0.0
 33
0.0
 40
0.0
 40
0.0
 40
0.0
 40
0.0
 40
1.0
 40
1.0
 40
1.0
 40
2.0
 40
2.0
 40
2.0
 40
3.0
 40
3.0
 40
3.0
 40
3.0
 10
17.8290429409664
 20
10.60692964881444
 30
0.0
 10
17.94038488741345
 20
10.64202683494069
 30
0.0
 10
18.04287260352725
 20
10.6235805212796
 30
0.0
 10
18.13648149422273
 20
10.55159070782989
 30
0.0
 10
18.38243233682761
 20
10.3794251136574
 30
0.0
 10
18.44392004747907
 20
10.13347426483927
 30
0.0
 10
18.32094462617647
 20
9.813738161375506
 30
0.0
 10
18.31509099612239
 20
9.798046497220314
 30
0.0
 10
18.30894222505722
 20
9.78166617068953
 30
0.0
 10
18.30249831298094
 20
9.764547991611751
 30
0.0
  0
SPLINE
  5
45
330
1F
100
AcDbEntity
  8
Layer 1
 62
   163
370
    35
100
AcDbSpline
210
0.0
220
0.0
230
1.0
 70
     8
 71
     3
 72
    47
 73
    43
 74
     0
 42
0.0000000001
 43
0.0000000001
 12
1.0
 22
0.0
 32
0.0
 13
1.0
 23
0.0
 33
0.0
 40
0.0
 40
0.0
 40
0.0
 40
0.0
 40
1.0
 40
1.0
 40
1.0
 40
2.0
 40
2.0
 40
2.0
 40
3.0
 40
3.0
 40
3.0
 40
4.0
 40
4.0
 40
4.0
 40
5.0
 40
5.0
 40
5.0
 40
6.0
 40
6.0
 40
6.0
 40
7.0
 40
7.0
 40
7.0
 40
8.0
 40
8.0
 40
8.0
 40
9.0
 40
9.0
 40
9.0
 40
10.0
 40
10.0
 40
10.0
 40
11.0
 40
11.0
 40
11.0
 40
12.0
 40
12.0
 40
12.0
 40
13.0
 40
13.0
 40
13.0
 40
14.0
 40
14.0
 40
14.0
 40
14.0
 10
13.52490319537766
 20
-15.70981117474465
 30
0.0
 10
13.61949725906536
 20
-15.77737387291527
 30
0.0
 10
13.71787759859287
 20
-15.84911773551534
 30
0.0
 10
13.82004420650364
 20
-15.92501816746075
 30
0.0
 10
14.68087215562151
 20
-16.56449037438859
 30
0.0
 10
15.04979841952899
 20
-16.94571419005705
 30
0.0
 10
14.92682299822639
 20
-17.06868961446611
 30
0.0
 10
14.79563421811445
 20
-17.1916650388755
 30
0.0
 10
14.49640902366745
 20
-17.22855766619799
 30
0.0
 10
14.02910242271809
 20
-17.17936749643424
 30
0.0
 10
13.62736768622786
 20
-17.1301773266708
 30
0.0
 10
13.37322531074307
 20
-17.24085520863893
 30
0.0
 10
13.26665481064242
 20
-17.51140114233894
 30
0.0
 10
13.17646463665898
 20
-17.74094706954122
 30
0.0
 10
13.1231916841507
 20
-17.97460037591841
 30
0.0
 10
13.10678676294907
 20
-18.21236106147083
 30
0.0
 10
13.07397827638659
 20
-18.50750208005303
 30
0.0
 10
13.03300151016726
 20
-18.73296522316483
 30
0.0
 10
12.98381134164647
 20
-18.88872589572149
 30
0.0
 10
12.82802742756814
 20
-18.88872589572149
 30
0.0
 10
12.68048016746141
 20
-18.85183326839867
 30
0.0
 10
12.5410998249575
 20
-18.77804801375336
 30
0.0
 10
12.40171948245295
 20
-18.67147751096014
 30
0.0
 10
12.2951489823523
 20
-18.59766766122977
 30
0.0
 10
12.22136372957081
 20
-18.55669224981679
 30
0.0
 10
11.82784238140261
 20
-18.30255123773295
 30
0.0
 10
11.45070267418591
 20
-18.25336106796919
 30
0.0
 10
11.08998985358734
 20
-18.40912174052585
 30
0.0
 10
10.71285012773055
 20
-18.55669224981679
 30
0.0
 10
10.48741028920502
 20
-18.86413081083961
 30
0.0
 10
10.41362503642352
 20
-19.33143742359463
 30
0.0
 10
10.39722011522157
 20
-19.42162759985611
 30
0.0
 10
10.38083978910437
 20
-19.47490055371003
 30
0.0
 10
10.36443486790242
 20
-19.49130547532619
 30
0.0
 10
10.35624470484365
 20
-19.54049564508995
 30
0.0
 10
10.32754224151167
 20
-19.57328089323754
 30
0.0
 10
10.27835207299057
 20
-19.5896858148537
 30
0.0
 10
10.17997173594868
 20
-19.62247106300097
 30
0.0
 10
10.08569877797806
 20
-19.56917351406231
 30
0.0
 10
9.99550860399494
 20
-19.42981776312182
 30
0.0
 10
9.803962087774213
 20
-19.14520344086937
 30
0.0
 10
9.664607610066968
 20
-18.7926820892577
 30
0.0
 10
9.577392171566038
 20
-18.37222911320303
 30
0.0
  0
SPLINE
  5
46
330
1F
100
AcDbEntity
  8
Layer 1
 62
   163
370
    35
100
AcDbSpline
210
0.0
220
0.0
230
1.0
 70
     8
 71
     3
 72
    35
 73
    31
 74
     0
 42
0.0000000001
 43
0.0000000001
 12
1.0
 22
0.0
 32
0.0
 13
1.0
 23
0.0
 33
0.0
 40
0.0
 40
0.0
 40
0.0
 40
0.0
 40
1.0
 40
1.0
 40
1.0
 40
2.0
 40
2.0
 40
2.0
 40
3.0
 40
3.0
 40
3.0
 40
4.0
 40
4.0
 40
4.0
 40
5.0
 40
5.0
 40
5.0
 40
6.0
 40
6.0
 40
6.0
 40
7.0
 40
7.0
 40
7.0
 40
8.0
 40
8.0
 40
8.0
 40
9.0
 40
9.0
 40
9.0
 40
10.0
 40
10.0
 40
10.0
 40
10.0
 10
-8.383168109669057
 20
-18.89487466694196
 30
0.0
 10
-8.405574231430313
 20
-18.93963772142695
 30
0.0
 10
-8.43223530276871
 20
-18.9990840415864
 30
0.0
 10
-8.463102133515731
 20
-19.07318903233524
 30
0.0
 10
-8.512292302036835
 20
-19.19616445674431
 30
0.0
 10
-8.569672633616383
 20
-19.26173495303917
 30
0.0
 10
-8.635267723339114
 20
-19.26994971138994
 30
0.0
 10
-8.709052976120608
 20
-19.28635463300611
 30
0.0
 10
-8.77464806584334
 20
-19.23713986815729
 30
0.0
 10
-8.832028397423208
 20
-19.12237920209868
 30
0.0
 10
-9.209144824389451
 20
-18.66326275260969
 30
0.0
 10
-9.545285840978094
 20
-18.38452665564397
 30
0.0
 10
-9.840426852104077
 20
-18.2861463161171
 30
0.0
 10
-10.0535924473898
 20
-18.21236106147083
 30
0.0
 10
-10.26673344759142
 20
-18.22055122473686
 30
0.0
 10
-10.47989904287715
 20
-18.31074140099834
 30
0.0
 10
-10.62746954844046
 20
-18.34352664914593
 30
0.0
 10
-10.7586351328015
 20
-18.37633649237826
 30
0.0
 10
-10.87342039104534
 20
-18.40912174052585
 30
0.0
 10
-10.99639581234793
 20
-18.45831191028928
 30
0.0
 10
-11.09888352846141
 20
-18.4952045376121
 30
0.0
 10
-11.18085894430167
 20
-18.51979962249397
 30
0.0
 10
-11.37761961838577
 20
-18.57717995552344
 30
0.0
 10
-11.5128925818184
 20
-18.58128733469866
 30
0.0
 10
-11.5866778345999
 20
-18.53209716493491
 30
0.0
 10
-11.64405816617977
 20
-18.48290699517148
 30
0.0
 10
-11.64816554525136
 20
-18.3517414074967
 30
0.0
 10
-11.59897537673026
 20
-18.13857580682552
 30
0.0
 10
-11.52487038785356
 20
-17.7532200168971
 30
0.0
 10
-11.53920932197719
 20
-17.39863267815577
 30
0.0
 10
-11.64201677418618
 20
-17.07483838568658
 30
0.0
  0
SPLINE
  5
47
330
1F
100
AcDbEntity
  8
Layer 1
 62
   163
370
    35
100
AcDbSpline
210
0.0
220
0.0
230
1.0
 70
     8
 71
     3
 72
    20
 73
    16
 74
     0
 42
0.0000000001
 43
0.0000000001
 12
1.0
 22
0.0
 32
0.0
 13
1.0
 23
0.0
 33
0.0
 40
0.0
 40
0.0
 40
0.0
 40
0.0
 40
1.0
 40
1.0
 40
1.0
 40
2.0
 40
2.0
 40
2.0
 40
3.0
 40
3.0
 40
3.0
 40
4.0
 40
4.0
 40
4.0
 40
5.0
 40
5.0
 40
5.0
 40
5.0
 10
-18.71925171747069
 20
8.72540565535437
 30
0.0
 10
-18.75095478188301
 20
8.789967753169137
 30
0.0
 10
-18.77965724594043
 20
8.853496857418751
 30
0.0
 10
-18.80533451455694
 20
8.916017563188596
 30
0.0
 10
-18.92011977570062
 20
9.178373333623211
 30
0.0
 10
-18.98160748790531
 20
9.346431548620483
 30
0.0
 10
-18.9897976511707
 20
9.420216803266113
 30
0.0
 10
-19.02258289931829
 20
9.600572560704645
 30
0.0
 10
-18.96520256628882
 20
9.739952906729874
 30
0.0
 10
-18.81763205699788
 20
9.838333246257383
 30
0.0
 10
-18.71106155420498
 20
9.920308664168084
 30
0.0
 10
-18.58397875062069
 20
9.912118500902693
 30
0.0
 10
-18.43640824132943
 20
9.813738161375506
 30
0.0
 10
-18.38719347648125
 20
9.77438602556431
 30
0.0
 10
-18.32774715632181
 20
9.721088476625651
 30
0.0
 10
-18.25809387593614
 20
9.653870109643625
 30
0.0
  0
SPLINE
  5
48
330
1F
100
AcDbEntity
  8
Layer 1
 62
   163
370
    35
100
AcDbSpline
210
0.0
220
0.0
230
1.0
 70
     8
 71
     3
 72
    23
 73
    19
 74
     0
 42
0.0000000001
 43
0.0000000001
 12
1.0
 22
0.0
 32
0.0
 13
1.0
 23
0.0
 33
0.0
 40
0.0
 40
0.0
 40
0.0
 40
0.0
 40
1.0
 40
1.0
 40
1.0
 40
2.0
 40
2.0
 40
2.0
 40
3.0
 40
3.0
 40
3.0
 40
4.0
 40
4.0
 40
4.0
 40
5.0
 40
5.0
 40
5.0
 40
6.0
 40
6.0
 40
6.0
 40
6.0
 10
-17.74159709341768
 20
10.57003702149162
 30
0.0
 10
-17.90530197839137
 20
10.73214322594827
 30
0.0
 10
-18.07131880134372
 20
10.89816004889997
 30
0.0
 10
-18.23964756227505
 20
11.06808749034867
 30
0.0
 10
-18.84633452105498
 20
11.70755969727619
 30
0.0
 10
-19.2152607942825
 20
12.54379258325873
 30
0.0
 10
-19.34642638195728
 20
13.57678614829564
 30
0.0
 10
-19.37102146683915
 20
13.78173699061605
 30
0.0
 10
-19.33412883951634
 20
13.99490259128659
 30
0.0
 10
-19.23574849998915
 20
14.21625835522316
 30
0.0
 10
-19.08817799069789
 20
14.51139937380505
 30
0.0
 10
-18.88730993246829
 20
14.55239938030309
 30
0.0
 10
-18.63316892038413
 20
14.33923377963223
 30
0.0
 10
-18.22324264065857
 20
13.99490259128659
 30
0.0
 10
-17.74363848546325
 20
13.56859598502993
 30
0.0
 10
-17.1943564547972
 20
13.06028936577687
 30
0.0
 10
-17.01604208940391
 20
12.89137032280858
 30
0.0
 10
-16.78853755424655
 20
12.67205595091725
 30
0.0
 10
-16.51184284932608
 20
12.40237084518794
 30
0.0
  0
SPLINE
  5
49
330
1F
100
AcDbEntity
  8
Layer 1
 62
     1
370
    35
100
AcDbSpline
210
0.0
220
0.0
230
1.0
 70
     8
 71
     3
 72
   155
 73
   151
 74
     0
 42
0.0000000001
 43
0.0000000001
 12
1.0
 22
0.0
 32
0.0
 13
1.0
 23
0.0
 33
0.0
 40
0.0
 40
0.0
 40
0.0
 40
0.0
 40
1.0
 40
1.0
 40
1.0
 40
2.0
 40
2.0
 40
2.0
 40
3.0
 40
3.0
 40
3.0
 40
4.0
 40
4.0
 40
4.0
 40
5.0
 40
5.0
 40
5.0
 40
6.0
 40
6.0
 40
6.0
 40
7.0
 40
7.0
 40
7.0
 40
8.0
 40
8.0
 40
8.0
 40
9.0
 40
9.0
 40
9.0
 40
10.0
 40
10.0
 40
10.0
 40
11.0
 40
11.0
 40
11.0
 40
12.0
 40
12.0
 40
12.0
 40
13.0
 40
13.0
 40
13.0
 40
14.0
 40
14.0
 40
14.0
 40
15.0
 40
15.0
 40
15.0
 40
16.0
 40
16.0
 40
16.0
 40
17.0
 40
17.0
 40
17.0
 40
18.0
 40
18.0
 40
18.0
 40
19.0
 40
19.0
 40
19.0
 40
20.0
 40
20.0
 40
20.0
 40
21.0
 40
21.0
 40
21.0
 40
22.0
 40
22.0
 40
22.0
 40
23.0
 40
23.0
 40
23.0
 40
24.0
 40
24.0
 40
24.0
 40
25.0
 40
25.0
 40
25.0
 40
26.0
 40
26.0
 40
26.0
 40
27.0
 40
27.0
 40
27.0
 40
28.0
 40
28.0
 40
28.0
 40
29.0
 40
29.0
 40
29.0
 40
30.0
 40
30.0
 40
30.0
 40
31.0
 40
31.0
 40
31.0
 40
32.0
 40
32.0
 40
32.0
 40
33.0
 40
33.0
 40
33.0
 40
34.0
 40
34.0
 40
34.0
 40
35.0
 40
35.0
 40
35.0
 40
36.0
 40
36.0
 40
36.0
 40
37.0
 40
37.0
 40
37.0
 40
38.0
 40
38.0
 40
38.0
 40
39.0
 40
39.0
 40
39.0
 40
40.0
 40
40.0
 40
40.0
 40
41.0
 40
41.0
 40
41.0
 40
42.0
 40
42.0
 40
42.0
 40
43.0
 40
43.0
 40
43.0
 40
44.0
 40
44.0
 40
44.0
 40
45.0
 40
45.0
 40
45.0
 40
46.0
 40
46.0
 40
46.0
 40
47.0
 40
47.0
 40
47.0
 40
48.0
 40
48.0
 40
48.0
 40
49.0
 40
49.0
 40
49.0
 40
50.0
 40
50.0
 40
50.0
 40
50.0
 10
-16.51184284932608
 20
12.40237084518794
 30
0.0
 10
-16.30802338091042
 20
12.20327363306984
 30
0.0
 10
-16.07643606166289
 20
11.9757690979128
 30
0.0
 10
-15.81703232740714
 20
11.71985723971745
 30
0.0
 10
-15.5628913217435
 20
11.49850147578088
 30
0.0
 10
-15.09558472079381
 20
11.15006290825969
 30
0.0
 10
-14.41511252455841
 20
10.67456613223928
 30
0.0
 10
-14.41511252455841
 20
10.67456613223928
 30
0.0
 10
-12.28763773602443
 20
9.235753666652357
 30
0.0
 10
-12.28763773602443
 20
9.235753666652357
 30
0.0
 10
-12.18925739898254
 20
9.161968412007045
 30
0.0
 10
-12.04168689341923
 20
9.05948069330399
 30
0.0
 10
-11.84492621933546
 20
8.928315105629535
 30
0.0
 10
-11.66457046645299
 20
8.838124929367739
 30
0.0
 10
-11.47599995542766
 20
8.838124929367739
 30
0.0
 10
-11.27923928134388
 20
8.928315105629535
 30
0.0
 10
-11.21364419162115
 20
8.961100353776803
 30
0.0
 10
-11.13985893883966
 20
8.957017569686316
 30
0.0
 10
-11.05788352299907
 20
8.916017563188596
 30
0.0
 10
-11.02509827567992
 20
8.891422478306719
 30
0.0
 10
-10.9553958068856
 20
8.838124929367739
 30
0.0
 10
-10.84882530678462
 20
8.756149511456716
 30
0.0
 10
-10.38970886889402
 20
8.411818323111078
 30
0.0
 10
-9.856831773305704
 20
8.06748713476544
 30
0.0
 10
-9.250144829851791
 20
7.723155946419802
 30
0.0
 10
-8.881218565944312
 20
7.518205104099394
 30
0.0
 10
-8.311424248881147
 20
7.210766543076572
 30
0.0
 10
-7.540786473746715
 20
6.800840263351016
 30
0.0
 10
-7.057074951595402
 20
6.546699251267174
 30
0.0
 10
-6.720958530091178
 20
6.333533650595992
 30
0.0
 10
-6.532388019065848
 20
6.161368056423815
 30
0.0
 10
-6.196247002477525
 20
5.882631959457775
 30
0.0
 10
-5.995403544406257
 20
5.538300771111817
 30
0.0
 10
-5.929808454683527
 20
5.128374491386581
 30
0.0
 10
-5.888832167505043
 20
4.857828557686575
 30
0.0
 10
-5.856023201902031
 20
4.656960499456332
 30
0.0
 10
-5.831428117641639
 20
4.525794911781555
 30
0.0
 10
-5.765833027918587
 20
4.320844069461146
 30
0.0
 10
-5.679750233007057
 20
4.13638093284771
 30
0.0
 10
-5.573179732906084
 20
3.972405501940603
 30
0.0
 10
-5.269848558721337
 20
3.546098895683622
 30
0.0
 10
-4.868112452409964
 20
3.308338210131205
 30
0.0
 10
-4.368020604141442
 20
3.259148040367451
 30
0.0
 10
-3.859713997729417
 20
3.209957870603697
 30
0.0
 10
-3.425217239183306
 20
3.373933301510803
 30
0.0
 10
-3.064481138334592
 20
3.75104973800403
 30
0.0
 10
-2.375818779040099
 20
4.464307199577183
 30
0.0
 10
-1.617478546036022
 20
5.288242543118462
 30
0.0
 10
-0.7894358442373018
 20
6.222855768628187
 30
0.0
 10
-0.3221292432879367
 20
6.747542714411715
 30
0.0
 10
-0.0556906954936167
 20
7.403419842955721
 30
0.0
 10
0.0099043942291142
 20
8.190462559174184
 30
0.0
 10
0.0590945627498974
 20
8.715149504958674
 30
0.0
 10
-0.1540710325358247
 20
9.112778242243612
 30
0.0
 10
-0.6295677965442753
 20
9.383324175943299
 30
0.0
 10
-1.023089144712145
 20
9.596489776614158
 30
0.0
 10
-1.420717871951927
 20
9.867035710314164
 30
0.0
 10
-1.822429383178561
 20
10.19496197704364
 30
0.0
 10
-2.068380225784081
 20
10.40812757771482
 30
0.0
 10
-2.371735029403677
 20
10.5434005445645
 30
0.0
 10
-2.732447500817541
 20
10.60078087759397
 30
0.0
 10
-3.232563000267771
 20
10.67456613223928
 30
0.0
 10
-3.605572992065453
 20
10.73194646526907
 30
0.0
 10
-3.851523834670652
 20
10.77294647176679
 30
0.0
 10
-4.294235351359625
 20
10.83032680479625
 30
0.0
 10
-4.671351778326189
 20
10.91643419696692
 30
0.0
 10
-4.982897710653798
 20
11.03119486302586
 30
0.0
 10
-5.269848558721337
 20
11.12138503928765
 30
0.0
 10
-5.491204317065824
 20
11.32222850243283
 30
0.0
 10
-5.646964985687579
 20
11.63377444263088
 30
0.0
 10
-5.696155154208683
 20
11.75674986704027
 30
0.0
 10
-5.700262533280275
 20
11.85102282739191
 30
0.0
 10
-5.659262527817936
 20
11.91661791877183
 30
0.0
 10
-5.610072359296832
 20
11.99040317341746
 30
0.0
 10
-5.52398956438498
 20
12.01910563747456
 30
0.0
 10
-5.401014143082701
 20
12.0027007158584
 30
0.0
 10
-5.048492800376529
 20
11.94532038282925
 30
0.0
 10
-4.597566525544373
 20
11.97810563097652
 30
0.0
 10
-4.048284508754747
 20
12.10108105538558
 30
0.0
 10
-3.343217228258948
 20
12.26505648629269
 30
0.0
 10
-2.908720469712836
 20
12.35113928337926
 30
0.0
 10
-2.744745042947898
 20
12.35932944664497
 30
0.0
 10
-2.64636470590569
 20
12.37573436826114
 30
0.0
 10
-2.515199121544646
 20
12.47411470778832
 30
0.0
 10
-2.351223694779707
 20
12.65447046522718
 30
0.0
 10
-1.965892509670281
 20
13.08899182983397
 30
0.0
 10
-1.371527703431144
 20
13.30624021459532
 30
0.0
 10
-0.5680800858928151
 20
13.30624021459532
 30
0.0
 10
0.2435576947036364
 20
13.30624021459532
 30
0.0
 10
0.874816174998325
 20
13.07258690821845
 30
0.0
 10
1.325741402165999
 20
12.60528029546342
 30
0.0
 10
1.743857834594902
 20
12.17075893085599
 30
0.0
 10
2.075891472111632
 20
11.63788182180643
 30
0.0
 10
2.321842314716511
 20
11.0065997781443
 30
0.0
 10
2.453007899077875
 20
10.67867351141483
 30
0.0
 10
2.625173488901258
 20
10.08839147425074
 30
0.0
 10
2.838339084187301
 20
9.235753666652357
 30
0.0
 10
3.108885011052891
 20
8.194569938349732
 30
0.0
 10
3.203157969023187
 20
7.124683745990323
 30
0.0
 10
3.121182553183248
 20
6.026095089573491
 30
0.0
 10
3.1047776319813
 20
5.755549155873164
 30
0.0
 10
3.076099763733414
 20
5.349730255323155
 30
0.0
 10
3.035099758271396
 20
4.808638387922821
 30
0.0
 10
3.010504674010683
 20
4.513497369340617
 30
0.0
 10
3.108885011052891
 20
4.247058814815836
 30
0.0
 10
3.330240769397378
 20
4.009298129263419
 30
0.0
 10
3.59257305444029
 20
3.722347273946927
 30
0.0
 10
3.908225249519308
 20
3.488693967569416
 30
0.0
 10
4.277151513427106
 20
3.308338210131205
 30
0.0
 10
4.621482693074193
 20
3.144387374308518
 30
0.0
 10
4.937111409388975
 20
3.160767700839943
 30
0.0
 10
5.224062257456514
 20
3.357528379894639
 30
0.0
 10
5.502798347380869
 20
3.554289058949335
 30
0.0
 10
5.621690984695975
 20
3.841239914265506
 30
0.0
 10
5.580690979233956
 20
4.218356350758733
 30
0.0
 10
5.539690973771616
 20
4.685662963513757
 30
0.0
 10
5.621690984695975
 20
5.128374491386581
 30
0.0
 10
5.826641821838835
 20
5.54649093437785
 30
0.0
 10
5.998807411662538
 20
5.890822122723488
 30
0.0
 10
6.261163175469044
 20
6.235153311068805
 30
0.0
 10
6.613684518175216
 20
6.579484499415084
 30
0.0
 10
6.818635355318075
 20
6.768055015203426
 30
0.0
 10
7.08099111912458
 20
6.973005857523835
 30
0.0
 10
7.400727214511275
 20
7.194361621460407
 30
0.0
 10
7.589297725536606
 20
7.325527209135185
 30
0.0
 10
7.863926436389369
 20
7.518205104099394
 30
0.0
 10
8.224662537238084
 20
7.772346116182915
 30
0.0
 10
8.51161338530562
 20
7.969106795237932
 30
0.0
 10
8.954301558679552
 20
8.239652728938259
 30
0.0
 10
9.552797087305645
 20
8.583983917283897
 30
0.0
 10
10.07748401983488
 20
8.91193477909811
 30
0.0
 10
10.47511274707466
 20
9.239861045827583
 30
0.0
 10
10.74565867394025
 20
9.567787312557055
 30
0.0
 10
10.81944392672175
 20
9.666167652084564
 30
0.0
 10
10.89731326434431
 20
9.694870116141347
 30
0.0
 10
10.9793119744151
 20
9.653870109643625
 30
0.0
 10
11.15147756423848
 20
9.563704528466248
 30
0.0
 10
11.32364315406218
 20
9.559597149291344
 30
0.0
 10
11.49580874388556
 20
9.641572567202687
 30
0.0
 10
11.59418908092777
 20
9.707167658582605
 30
0.0
 10
11.72946204436041
 20
9.805547998109473
 30
0.0
 10
11.90162763418411
 20
9.93671358578457
 30
0.0
 10
12.62307524079744
 20
10.36302019204123
 30
0.0
 10
13.21746464212132
 20
10.7401612236192
 30
0.0
 10
13.684771243071
 20
11.06808749034867
 30
0.0
 10
14.29145818652492
 20
11.52720393983798
 30
0.0
 10
14.80795495599538
 20
11.99859333668317
 30
0.0
 10
15.23426155148273
 20
12.48230487105404
 30
0.0
 10
15.42369289045726
 20
12.71743388252426
 30
0.0
 10
15.64504864880174
 20
12.99412858744473
 30
0.0
 10
15.89832882651651
 20
13.31238898581578
 30
0.0
  0
SPLINE
  5
4A
330
1F
100
AcDbEntity
  8
Layer 1
 62
     1
370
    35
100
AcDbSpline
210
0.0
220
0.0
230
1.0
 70
     8
 71
     3
 72
    26
 73
    22
 74
     0
 42
0.0000000001
 43
0.0000000001
 12
1.0
 22
0.0
 32
0.0
 13
1.0
 23
0.0
 33
0.0
 40
0.0
 40
0.0
 40
0.0
 40
0.0
 40
1.0
 40
1.0
 40
1.0
 40
2.0
 40
2.0
 40
2.0
 40
3.0
 40
3.0
 40
3.0
 40
4.0
 40
4.0
 40
4.0
 40
5.0
 40
5.0
 40
5.0
 40
6.0
 40
6.0
 40
6.0
 40
7.0
 40
7.0
 40
7.0
 40
7.0
 10
-18.25809387593614
 20
9.653870109643625
 30
0.0
 10
-18.21133861957603
 20
9.606278620397239
 30
0.0
 10
-18.16010705776703
 20
9.553005666542997
 30
0.0
 10
-18.10437459542505
 20
9.494002057911425
 30
0.0
 10
-17.65347290428619
 20
9.141480706300396
 30
0.0
 10
-17.12878595850234
 20
8.801256897129662
 30
0.0
 10
-16.5302891629878
 20
8.47330603531545
 30
0.0
 10
-16.07117271349849
 20
8.22735518649732
 30
0.0
 10
-15.50548639507921
 20
7.96091663197222
 30
0.0
 10
-14.83322895698699
 20
7.673965776656049
 30
0.0
 10
-14.80044370966751
 20
7.657560855040205
 30
0.0
 10
-14.74306272496444
 20
7.649370691774172
 30
0.0
 10
-14.66106336716361
 20
7.649370691774172
 30
0.0
 10
-14.66106336716361
 20
7.649370691774172
 30
0.0
 10
-14.5626830301214
 20
7.723155946419802
 30
0.0
 10
-14.5626830301214
 20
7.723155946419802
 30
0.0
 10
-15.39891589497856
 20
8.436413407993276
 30
0.0
 10
-15.82522249046623
 20
8.801232302045245
 30
0.0
 10
-15.84162741166786
 20
8.817637223661087
 30
0.0
 10
-16.42996581175465
 20
9.320016427457622
 30
0.0
 10
-17.0632892474617
 20
9.90414969340092
 30
0.0
 10
-17.74159709341768
 20
10.57003702149162
 30
0.0
  0
SPLINE
  5
4B
330
1F
100
AcDbEntity
  8
Layer 1
 62
     1
370
    35
100
AcDbSpline
210
0.0
220
0.0
230
1.0
 70
     8
 71
     3
 72
   266
 73
   262
 74
     0
 42
0.0000000001
 43
0.0000000001
 12
1.0
 22
0.0
 32
0.0
 13
1.0
 23
0.0
 33
0.0
 40
0.0
 40
0.0
 40
0.0
 40
0.0
 40
1.0
 40
1.0
 40
1.0
 40
2.0
 40
2.0
 40
2.0
 40
3.0
 40
3.0
 40
3.0
 40
4.0
 40
4.0
 40
4.0
 40
5.0
 40
5.0
 40
5.0
 40
6.0
 40
6.0
 40
6.0
 40
7.0
 40
7.0
 40
7.0
 40
8.0
 40
8.0
 40
8.0
 40
9.0
 40
9.0
 40
9.0
 40
10.0
 40
10.0
 40
10.0
 40
11.0
 40
11.0
 40
11.0
 40
12.0
 40
12.0
 40
12.0
 40
13.0
 40
13.0
 40
13.0
 40
14.0
 40
14.0
 40
14.0
 40
15.0
 40
15.0
 40
15.0
 40
16.0
 40
16.0
 40
16.0
 40
17.0
 40
17.0
 40
17.0
 40
18.0
 40
18.0
 40
18.0
 40
19.0
 40
19.0
 40
19.0
 40
20.0
 40
20.0
 40
20.0
 40
21.0
 40
21.0
 40
21.0
 40
22.0
 40
22.0
 40
22.0
 40
23.0
 40
23.0
 40
23.0
 40
24.0
 40
24.0
 40
24.0
 40
25.0
 40
25.0
 40
25.0
 40
26.0
 40
26.0
 40
26.0
 40
27.0
 40
27.0
 40
27.0
 40
28.0
 40
28.0
 40
28.0
 40
29.0
 40
29.0
 40
29.0
 40
30.0
 40
30.0
 40
30.0
 40
31.0
 40
31.0
 40
31.0
 40
32.0
 40
32.0
 40
32.0
 40
33.0
 40
33.0
 40
33.0
 40
34.0
 40
34.0
 40
34.0
 40
35.0
 40
35.0
 40
35.0
 40
36.0
 40
36.0
 40
36.0
 40
37.0
 40
37.0
 40
37.0
 40
38.0
 40
38.0
 40
38.0
 40
39.0
 40
39.0
 40
39.0
 40
40.0
 40
40.0
 40
40.0
 40
41.0
 40
41.0
 40
41.0
 40
42.0
 40
42.0
 40
42.0
 40
43.0
 40
43.0
 40
43.0
 40
44.0
 40
44.0
 40
44.0
 40
45.0
 40
45.0
 40
45.0
 40
46.0
 40
46.0
 40
46.0
 40
47.0
 40
47.0
 40
47.0
 40
48.0
 40
48.0
 40
48.0
 40
49.0
 40
49.0
 40
49.0
 40
50.0
 40
50.0
 40
50.0
 40
51.0
 40
51.0
 40
51.0
 40
52.0
 40
52.0
 40
52.0
 40
53.0
 40
53.0
 40
53.0
 40
54.0
 40
54.0
 40
54.0
 40
55.0
 40
55.0
 40
55.0
 40
56.0
 40
56.0
 40
56.0
 40
57.0
 40
57.0
 40
57.0
 40
58.0
 40
58.0
 40
58.0
 40
59.0
 40
59.0
 40
59.0
 40
60.0
 40
60.0
 40
60.0
 40
61.0
 40
61.0
 40
61.0
 40
62.0
 40
62.0
 40
62.0
 40
63.0
 40
63.0
 40
63.0
 40
64.0
 40
64.0
 40
64.0
 40
65.0
 40
65.0
 40
65.0
 40
66.0
 40
66.0
 40
66.0
 40
67.0
 40
67.0
 40
67.0
 40
68.0
 40
68.0
 40
68.0
 40
69.0
 40
69.0
 40
69.0
 40
70.0
 40
70.0
 40
70.0
 40
71.0
 40
71.0
 40
71.0
 40
72.0
 40
72.0
 40
72.0
 40
73.0
 40
73.0
 40
73.0
 40
74.0
 40
74.0
 40
74.0
 40
75.0
 40
75.0
 40
75.0
 40
76.0
 40
76.0
 40
76.0
 40
77.0
 40
77.0
 40
77.0
 40
78.0
 40
78.0
 40
78.0
 40
79.0
 40
79.0
 40
79.0
 40
80.0
 40
80.0
 40
80.0
 40
81.0
 40
81.0
 40
81.0
 40
82.0
 40
82.0
 40
82.0
 40
83.0
 40
83.0
 40
83.0
 40
84.0
 40
84.0
 40
84.0
 40
85.0
 40
85.0
 40
85.0
 40
86.0
 40
86.0
 40
86.0
 40
87.0
 40
87.0
 40
87.0
 40
87.0
 10
-11.64201677418618
 20
-17.07483838568658
 30
0.0
 10
-11.70773483933004
 20
-16.86290253925975
 30
0.0
 10
-11.81226394743743
 20
-16.66407587307475
 30
0.0
 10
-11.9556040985077
 20
-16.47840757730202
 30
0.0
 10
-12.14417460953303
 20
-16.21605180686741
 30
0.0
 10
-12.36142298880592
 20
-16.09307638245834
 30
0.0
 10
-12.60737383141112
 20
-16.10948130407451
 30
0.0
 10
-12.83691975281437
 20
-16.12586163060593
 30
0.0
 10
-12.97219271624701
 20
-16.04799359186982
 30
0.0
 10
-13.01319272170967
 20
-15.87582799769732
 30
0.0
 10
-13.04597796902883
 20
-15.77744765816981
 30
0.0
 10
-13.02140678323625
 20
-15.7036624035245
 30
0.0
 10
-12.93940746892817
 20
-15.65447223376074
 30
0.0
 10
-12.82464610418155
 20
-15.6134722272627
 30
0.0
 10
-12.75083695790252
 20
-15.58479435829066
 30
0.0
 10
-12.71805171058337
 20
-15.56838943667417
 30
0.0
 10
-11.7096532559025
 20
-15.01908281092339
 30
0.0
 10
-10.62336216936854
 20
-14.61737128954828
 30
0.0
 10
-9.459203046066241
 20
-14.36323027746476
 30
0.0
 10
-9.295227619301624
 20
-14.31404010770069
 30
0.0
 10
-9.168169414011851
 20
-14.24844501632109
 30
0.0
 10
-9.077979240028407
 20
-14.16646959841007
 30
0.0
 10
-8.176151285448514
 20
-13.34664163404369
 30
0.0
 10
-7.503893847355967
 20
-12.5267890745929
 30
0.0
 10
-7.061182330666673
 20
-11.70696111022717
 30
0.0
 10
-6.938206909364394
 20
-11.49379550955599
 30
0.0
 10
-6.884909361771698
 20
-11.26014220317848
 30
0.0
 10
-6.901314282973326
 20
-11.00600119109464
 30
0.0
 10
-6.917719204175273
 20
-10.82562083857136
 30
0.0
 10
-6.975099535755142
 20
-10.59607491136908
 30
0.0
 10
-7.073479872797029
 20
-10.31733881440336
 30
0.0
 10
-7.253835625679497
 20
-9.792651868619192
 30
0.0
 10
-7.274347925952716
 20
-9.267940327750283
 30
0.0
 10
-7.134967583448489
 20
-8.743253381966113
 30
0.0
 10
-7.020182325204334
 20
-8.316946775709454
 30
0.0
 10
-6.782446240742318
 20
-7.849640162954751
 30
0.0
 10
-6.421710139893604
 20
-7.341333543701686
 30
0.0
 10
-6.151164213028014
 20
-6.947812185592294
 30
0.0
 10
-5.638774822628815
 20
-6.324744900280938
 30
0.0
 10
-4.884517373611911
 20
-5.472107092682877
 30
0.0
 10
-4.54837635702359
 20
-5.103180819455041
 30
0.0
 10
-4.335235356821965
 20
-4.758849631109724
 30
0.0
 10
-4.245045182838521
 20
-4.439113527645643
 30
0.0
 10
-4.154878683336237
 20
-4.168567593945636
 30
0.0
 10
-4.179450093115791
 20
-3.922616745127186
 30
0.0
 10
-4.318830435620018
 20
-3.701260981190613
 30
0.0
 10
-4.392615688401833
 20
-3.709451144456326
 30
0.0
 10
-4.449996019981702
 20
-3.742260987688655
 30
0.0
 10
-4.490996025443721
 20
-3.799641320718122
 30
0.0
 10
-4.523804956563752
 20
-3.857021653747267
 30
0.0
 10
-4.560673899153945
 20
-3.922616745127186
 30
0.0
 10
-4.601673904616285
 20
-3.996401999772818
 30
0.0
 10
-4.946005084263372
 20
-4.635874206700339
 30
0.0
 10
-5.446120639632218
 20
-5.156478368394021
 30
0.0
 10
-6.10197404450691
 20
-5.558189889768805
 30
0.0
 10
-6.347924887112108
 20
-5.705760399060067
 30
0.0
 10
-6.556983103326239
 20
-5.718057941501006
 30
0.0
 10
-6.729148693149942
 20
-5.595082517091621
 30
0.0
 10
-6.819338867133386
 20
-5.537677588977735
 30
0.0
 10
-6.860338020337585
 20
-5.447512007801
 30
0.0
 10
-6.852124114452542
 20
-5.324536583391614
 30
0.0
 10
-6.81114785057383
 20
-5.168751315749899
 30
0.0
 10
-6.778338861671046
 20
-5.058098028867154
 30
0.0
 10
-6.753743777410655
 20
-4.992502937486915
 30
0.0
 10
-6.712743771948316
 20
-4.844932428195973
 30
0.0
 10
-6.610280650918934
 20
-4.615361905908948
 30
0.0
 10
-6.446305224153996
 20
-4.303840560795639
 30
0.0
 10
-6.306948610496312
 20
-4.000484783862983
 30
0.0
 10
-6.216759302750744
 20
-3.754533935044854
 30
0.0
 10
-6.175759297288725
 20
-3.56598801434061
 30
0.0
 10
-6.282329797389377
 20
-3.582392935957095
 30
0.0
 10
-6.368436322701005
 20
-3.631558510635468
 30
0.0
 10
-6.43400768202396
 20
-3.713558523631872
 30
0.0
 10
-6.466792929343116
 20
-3.762748693395306
 30
0.0
 10
-6.511900313876727
 20
-3.828343784775225
 30
0.0
 10
-6.569280645456595
 20
-3.910319202686568
 30
0.0
 10
-6.979206914826733
 20
-4.459601233352294
 30
0.0
 10
-7.467001220965219
 20
-4.967907852605358
 30
0.0
 10
-8.032688158956793
 20
-5.435214465360061
 30
0.0
 10
-8.303234085822384
 20
-5.664760392562026
 30
0.0
 10
-8.598375096948686
 20
-5.775438274530152
 30
0.0
 10
-8.91811119233506
 20
-5.767248111264439
 30
0.0
 10
-9.065681697898052
 20
-5.767248111264439
 30
0.0
 10
-9.176359577070295
 20
-5.754950568823822
 30
0.0
 10
-9.250144829851791
 20
-5.730355483941945
 30
0.0
 10
-9.348525166893998
 20
-5.689355477443903
 30
0.0
 10
-9.43050058273426
 20
-5.619677601973497
 30
0.0
 10
-9.49609567245699
 20
-5.52129726244631
 30
0.0
 10
-9.56169076217972
 20
-5.381916916421081
 30
0.0
 10
-9.524798135788973
 20
-5.189263616541611
 30
0.0
 10
-9.385417793284747
 20
-4.94331276772316
 30
0.0
 10
-9.254252208923383
 20
-4.754742251934177
 30
0.0
 10
-9.151764492809903
 20
-4.607171742643236
 30
0.0
 10
-9.077979240028407
 20
-4.500601239850336
 30
0.0
 10
-8.946813655667043
 20
-4.312030724061352
 30
0.0
 10
-8.85662348168392
 20
-4.127567587447595
 30
0.0
 10
-8.807433313162816
 20
-3.947211830009063
 30
0.0
 10
-8.971408739927435
 20
-4.020997084654694
 30
0.0
 10
-9.205062040402279
 20
-4.160377430679923
 30
0.0
 10
-9.508393214587025
 20
-4.365328273000332
 30
0.0
 10
-9.787129304511701
 20
-4.562088952055028
 30
0.0
 10
-10.00440227886902
 20
-4.693254539729805
 30
0.0
 10
-10.16016294749045
 20
-4.758849631109724
 30
0.0
 10
-10.38151870583526
 20
-4.840825049020427
 30
0.0
 10
-10.59468430112098
 20
-4.877717676343563
 30
0.0
 10
-10.79963513826384
 20
-4.86952751307785
 30
0.0
 10
-11.02099089660833
 20
-4.836742264930261
 30
0.0
 10
-11.16856140217164
 20
-4.750659467844011
 30
0.0
 10
-11.24234665495313
 20
-4.611279121818462
 30
0.0
 10
-11.29972698653268
 20
-4.471898775793233
 30
0.0
 10
-11.27104911828512
 20
-4.303840560795639
 30
0.0
 10
-11.15626386004128
 20
-4.107079881740943
 30
0.0
 10
-11.02509827567992
 20
-3.893914281070083
 30
0.0
 10
-10.84063514372618
 20
-3.656178190602406
 30
0.0
 10
-10.60287446417975
 20
-3.393822420167791
 30
0.0
 10
-10.30773345305376
 20
-3.098681401585908
 30
0.0
 10
-10.09048507378087
 20
-2.877325637649335
 30
0.0
 10
-9.95110473127632
 20
-2.729755128358393
 30
0.0
 10
-9.844534231175668
 20
-2.623184625565492
 30
0.0
 10
-9.76664159932258
 20
-2.541184612569409
 30
0.0
 10
-9.717451430801477
 20
-2.483804279540264
 30
0.0
 10
-9.627285069543625
 20
-2.369019018396591
 30
0.0
 10
-9.55758338310845
 20
-2.26244851560369
 30
0.0
 10
-9.508393214587025
 20
-2.164068176076182
 30
0.0
 10
-9.631368635889945
 20
-2.123068169578461
 30
0.0
 10
-9.742046515062189
 20
-2.131282927928913
 30
0.0
 10
-9.840426852104077
 20
-2.18866326095838
 30
0.0
 10
-9.914212104885571
 20
-2.229663267456101
 30
0.0
 10
-10.00029489979742
 20
-2.291150979660793
 30
0.0
 10
-10.09867523683931
 20
-2.373126397572138
 30
0.0
 10
-10.86931301197374
 20
-2.865028095208717
 30
0.0
 10
-11.68095079257052
 20
-3.102788780761133
 30
0.0
 10
-12.53358857862963
 20
-3.086383859144969
 30
0.0
 10
-12.68934924725138
 20
-3.086383859144969
 30
0.0
 10
-12.80002712642363
 20
-3.082276479969743
 30
0.0
 10
-12.86562221614636
 20
-3.07408631670403
 30
0.0
 10
-12.96400255318857
 20
-3.041301068556761
 30
0.0
 10
-13.04597796902883
 20
-2.971598598001617
 30
0.0
 10
-13.11157305875156
 20
-2.865028095208717
 30
0.0
 10
-13.20995339579344
 20
-2.643672331272144
 30
0.0
 10
-13.14846568514231
 20
-2.418209188160345
 30
0.0
 10
-12.9271099267975
 20
-2.18866326095838
 30
0.0
 10
-12.53358857862963
 20
-1.778736981232503
 30
0.0
 10
-12.02119918823043
 20
-1.422108250446247
 30
0.0
 10
-11.3899171605158
 20
-1.118777068598651
 30
0.0
 10
-11.29972698653268
 20
-1.085991820451061
 30
0.0
 10
-11.23415649189437
 20
-1.053181977218733
 30
0.0
 10
-11.19315648643203
 20
-1.020396729071143
 30
0.0
 10
-11.11118107059177
 20
-0.9712065593073886
 30
0.0
 10
-11.04558598086904
 20
-0.9056114679274699
 30
0.0
 10
-10.99639581234793
 20
-0.8236360500164469
 30
0.0
 10
-11.1767515652304
 20
-0.8154458867510552
 30
0.0
 10
-11.3899171605158
 20
-0.8400409716326114
 30
0.0
 10
-11.635868003121
 20
-0.8974213046620781
 30
0.0
 10
-12.00479426702848
 20
-0.9958016441892658
 30
0.0
 10
-12.20155494111258
 20
-1.049074598043507
 30
0.0
 10
-12.22615002537329
 20
-1.057289356393958
 30
0.0
 10
-12.61148121048272
 20
-1.122884447773877
 30
0.0
 10
-12.9066222216087
 20
-1.172050022452571
 30
0.0
 10
-13.11157305875156
 20
-1.2048598656849
 30
0.0
 10
-13.43952322622752
 20
-1.254050035448975
 30
0.0
 10
-13.73055754433551
 20
-1.245859872182942
 30
0.0
 10
-13.98469854999947
 20
-1.180264780803023
 30
0.0
 10
-14.19786414528551
 20
-1.122884447773877
 30
0.0
 10
-14.35773219297854
 20
-1.049074598043507
 30
0.0
 10
-14.46430269307951
 20
-0.9589090168667709
 30
0.0
 10
-14.57908795132335
 20
-0.8605286773392625
 30
0.0
 10
-14.64465844596166
 20
-0.7211483313137125
 30
0.0
 10
-14.66106336716361
 20
-0.540792573875502
 30
0.0
 10
-14.67746828836523
 20
-0.3686269797026831
 30
0.0
 10
-14.61187319864218
 20
-0.2374613920279059
 30
0.0
 10
-14.46430269307951
 20
-0.14727121576611
 30
0.0
 10
-14.25935185593665
 20
-0.0652712027700268
 30
0.0
 10
-14.11178135037366
 20
-0.0037834905656549
 30
0.0
 10
-14.02159117639022
 20
0.0371919208473265
 30
0.0
 10
-13.70185508100352
 20
0.1847624301385891
 30
0.0
 10
-13.27963126950367
 20
0.3364403186047568
 30
0.0
 10
-12.75494433697411
 20
0.4922009911614111
 30
0.0
 10
-12.05809181462118
 20
0.7053665918322716
 30
0.0
 10
-11.62767784006224
 20
0.8447223427727614
 30
0.0
 10
-11.4637024132973
 20
0.9103174341526801
 30
0.0
 10
-11.37351223931418
 20
0.967697767181826
 30
0.0
 10
-11.27104911828512
 20
1.033292858561745
 30
0.0
 10
-11.15626386004128
 20
1.107078113207376
 30
0.0
 10
-11.17266878124291
 20
1.107078113207376
 30
0.0
 10
-11.33253682893626
 20
1.111185492382281
 30
0.0
 10
-11.635868003121
 20
1.119375655648315
 30
0.0
 10
-11.79984342988594
 20
1.119375655648315
 30
0.0
 10
-11.92690163517572
 20
1.107078113207376
 30
0.0
 10
-12.01709180915916
 20
1.082483028325178
 30
0.0
 10
-12.18925739898254
 20
1.033292858561745
 30
0.0
 10
-12.41061315732703
 20
1.000507610414476
 30
0.0
 10
-12.68115908419262
 20
0.9841026887979906
 30
0.0
 10
-12.97630009531892
 20
0.9595076039161134
 30
0.0
 10
-13.19765585366341
 20
0.9431026822999489
 30
0.0
 10
-13.34522635922608
 20
0.9349125190345572
 30
0.0
 10
-13.68955753887349
 20
0.8939125125365156
 30
0.0
 10
-14.0666978907141
 20
0.9390198982097832
 30
0.0
 10
-14.47660023520955
 20
1.070185485884239
 30
0.0
 10
-14.94390683615923
 20
1.250541243322771
 30
0.0
 10
-15.29234539487791
 20
1.394028968523547
 30
0.0
 10
-15.52189131628116
 20
1.500599471316447
 30
0.0
 10
-15.61208149026428
 20
1.541599477814168
 30
0.0
 10
-15.72275936943653
 20
1.631765058991545
 30
0.0
 10
-15.85392495379821
 20
1.771145405017095
 30
0.0
 10
-15.98509053815926
 20
1.910525751041683
 30
0.0
 10
-16.04249484452613
 20
2.037583959541555
 30
0.0
 10
-16.02608992291028
 20
2.152369220684907
 30
0.0
 10
-16.00149545936121
 20
2.275344645094292
 30
0.0
 10
-15.903115122319
 20
2.369617605446254
 30
0.0
 10
-15.73094953249561
 20
2.435212696826173
 30
0.0
 10
-15.21445276302482
 20
2.648378297496712
 30
0.0
 10
-14.65695598809169
 20
2.767246342730872
 30
0.0
 10
-14.05848380278096
 20
2.791841427612428
 30
0.0
 10
-13.82893788137771
 20
2.800031590878461
 30
0.0
 10
-13.71004524406229
 20
2.804138970053367
 30
0.0
 10
-13.70185508100352
 20
2.804138970053367
 30
0.0
 10
-13.54609441238209
 20
2.812329133319079
 30
0.0
 10
-13.39852390681877
 20
2.857436518992347
 30
0.0
 10
-13.25914356431455
 20
2.93941193690369
 30
0.0
 10
-13.25914356431455
 20
2.93941193690369
 30
0.0
 10
-14.59957565651215
 20
3.234552955485574
 30
0.0
 10
-14.59957565651215
 20
3.234552955485574
 30
0.0
 10
-15.28004785274755
 20
3.382123464776195
 30
0.0
 10
-15.80062740620552
 20
3.541991516508396
 30
0.0
 10
-16.16136288976029
 20
3.714157110681215
 30
0.0
 10
-16.71064492042634
 20
3.960107959499344
 30
0.0
 10
-17.14927366420867
 20
4.296248984579591
 30
0.0
 10
-17.47719993093814
 20
4.722555590836251
 30
0.0
 10
-17.59198519208182
 20
4.870126100127513
 30
0.0
 10
-17.64117536184525
 20
4.984911361270544
 30
0.0
 10
-17.62477044022909
 20
5.06688677918221
 30
0.0
 10
-17.60017535534721
 20
5.148862197093233
 30
0.0
 10
-17.50590239499525
 20
5.222672046823603
 30
0.0
 10
-17.34192696408782
 20
5.288242543118462
 30
0.0
 10
-17.21076137641305
 20
5.345647471232347
 30
0.0
 10
-17.0590834879472
 20
5.370217961029485
 30
0.0
 10
-16.88691789377438
 20
5.362027797764093
 30
0.0
 10
-16.78034739098116
 20
5.362027797764093
 30
0.0
 10
-16.62866950251499
 20
5.345647471232347
 30
0.0
 10
-16.43190882346029
 20
5.312837628000339
 30
0.0
 10
-16.17776781137613
 20
5.280052379852749
 30
0.0
 10
-15.73913969555438
 20
5.198052366856987
 30
0.0
 10
-15.11607242598294
 20
5.06688677918221
 30
0.0
 10
-14.56679040919299
 20
4.968506439654701
 30
0.0
 10
-14.12818560291847
 20
4.898828564184296
 30
0.0
 10
-13.80023541804573
 20
4.857828557686575
 30
0.0
 10
-13.65266491248274
 20
4.833233472804698
 30
0.0
 10
-13.47639194358744
 20
4.833233472804698
 30
0.0
 10
-13.2714411064449
 20
4.857828557686575
 30
0.0
 10
-13.14846568514231
 20
4.874233479302739
 30
0.0
 10
-12.97219271624701
 20
4.902911348274782
 30
0.0
 10
-12.74264679484408
 20
4.943911354772824
 30
0.0
 10
-13.10338289569279
 20
5.157076955443684
 30
0.0
 10
-13.64036737035238
 20
5.337432712882216
 30
0.0
 10
-14.35362481390695
 20
5.485003222173479
 30
0.0
 10
-15.55059377961314
 20
5.714573744460183
 30
0.0
 10
-16.64507442413116
 20
6.33764102977154
 30
0.0
 10
-17.63706798267035
 20
7.354229673192288
 30
0.0
 10
-18.14697328244014
 20
7.857051588516377
 30
0.0
 10
-18.50770939240194
 20
8.314126645960444
 30
0.0
 10
-18.71925171747069
 20
8.72540565535437
 30
0.0
  0
SPLINE
  5
4C
330
1F
100
AcDbEntity
  8
Layer 1
 62
     1
370
    35
100
AcDbSpline
210
0.0
220
0.0
230
1.0
 70
     8
 71
     3
 72
    44
 73
    40
 74
     0
 42
0.0000000001
 43
0.0000000001
 12
1.0
 22
0.0
 32
0.0
 13
1.0
 23
0.0
 33
0.0
 40
0.0
 40
0.0
 40
0.0
 40
0.0
 40
1.0
 40
1.0
 40
1.0
 40
2.0
 40
2.0
 40
2.0
 40
3.0
 40
3.0
 40
3.0
 40
4.0
 40
4.0
 40
4.0
 40
5.0
 40
5.0
 40
5.0
 40
6.0
 40
6.0
 40
6.0
 40
7.0
 40
7.0
 40
7.0
 40
8.0
 40
8.0
 40
8.0
 40
9.0
 40
9.0
 40
9.0
 40
10.0
 40
10.0
 40
10.0
 40
11.0
 40
11.0
 40
11.0
 40
12.0
 40
12.0
 40
12.0
 40
13.0
 40
13.0
 40
13.0
 40
13.0
 10
17.21416583445372
 20
11.57843550164666
 30
0.0
 10
17.02473449547919
 20
11.28506532917628
 30
0.0
 10
16.81159349527757
 20
11.00426324508058
 30
0.0
 10
16.57469364368033
 20
10.73605384444397
 30
0.0
 10
16.50090839089883
 20
10.66226858979834
 30
0.0
 10
16.22217230097448
 20
10.38353249283294
 30
0.0
 10
15.73846077882316
 20
9.899820958461754
 30
0.0
 10
15.39412959917608
 20
9.563704528466248
 30
0.0
 10
15.13996540646041
 20
9.260348751534234
 30
0.0
 10
14.9760131667475
 20
8.989802817834228
 30
0.0
 10
14.92682299822639
 20
8.907827399922883
 30
0.0
 10
14.83663282424327
 20
8.829934766102026
 30
0.0
 10
14.70546723988191
 20
8.756149511456716
 30
0.0
 10
14.54968336929632
 20
8.682364256811406
 30
0.0
 10
14.43492131301631
 20
8.616769165431487
 30
0.0
 10
14.36113606023482
 20
8.55938883240202
 30
0.0
 10
14.27094588625138
 20
8.510198662638265
 30
0.0
 10
14.20537539161306
 20
8.47330603531545
 30
0.0
 10
14.16437538615072
 20
8.448710950433252
 30
0.0
 10
14.09878029642799
 20
8.383115859053653
 30
0.0
 10
14.05778167165975
 20
8.305247820317858
 30
0.0
 10
14.04139996484812
 20
8.215057644056381
 30
0.0
 10
14.14797046494878
 20
8.20686748079067
 30
0.0
 10
14.25456556013417
 20
8.223247807322094
 30
0.0
 10
14.36113606023482
 20
8.264247813819816
 30
0.0
 10
14.39392130755398
 20
8.272437977085849
 30
0.0
 10
14.48819565709163
 20
8.317545362759116
 30
0.0
 10
14.64397952923077
 20
8.399520780670139
 30
0.0
 10
15.0948812089785
 20
8.629066707872104
 30
0.0
 10
15.58678289418858
 20
8.93242248480476
 30
0.0
 10
16.119684584861
 20
9.309538921297667
 30
0.0
 10
16.3656354274662
 20
9.49810943708665
 30
0.0
 10
16.82064448628553
 20
9.850630788698322
 30
0.0
 10
17.48471176131931
 20
10.36712757121646
 30
0.0
 10
17.64047242994106
 20
10.49010299562584
 30
0.0
 10
17.73885276698295
 20
10.56388825027115
 30
0.0
 10
17.77985277244529
 20
10.58848333515303
 30
0.0
 10
17.79583957721469
 20
10.59546833925945
 30
0.0
 10
17.81222137887135
 20
10.60161711047992
 30
0.0
 10
17.8290429409664
 20
10.60692964881444
 30
0.0
  0
SPLINE
  5
4D
330
1F
100
AcDbEntity
  8
Layer 1
 62
     1
370
    35
100
AcDbSpline
210
0.0
220
0.0
230
1.0
 70
     8
 71
     3
 72
   263
 73
   259
 74
     0
 42
0.0000000001
 43
0.0000000001
 12
1.0
 22
0.0
 32
0.0
 13
1.0
 23
0.0
 33
0.0
 40
0.0
 40
0.0
 40
0.0
 40
0.0
 40
1.0
 40
1.0
 40
1.0
 40
2.0
 40
2.0
 40
2.0
 40
3.0
 40
3.0
 40
3.0
 40
4.0
 40
4.0
 40
4.0
 40
5.0
 40
5.0
 40
5.0
 40
6.0
 40
6.0
 40
6.0
 40
7.0
 40
7.0
 40
7.0
 40
8.0
 40
8.0
 40
8.0
 40
9.0
 40
9.0
 40
9.0
 40
10.0
 40
10.0
 40
10.0
 40
11.0
 40
11.0
 40
11.0
 40
12.0
 40
12.0
 40
12.0
 40
13.0
 40
13.0
 40
13.0
 40
14.0
 40
14.0
 40
14.0
 40
15.0
 40
15.0
 40
15.0
 40
16.0
 40
16.0
 40
16.0
 40
17.0
 40
17.0
 40
17.0
 40
18.0
 40
18.0
 40
18.0
 40
19.0
 40
19.0
 40
19.0
 40
20.0
 40
20.0
 40
20.0
 40
21.0
 40
21.0
 40
21.0
 40
22.0
 40
22.0
 40
22.0
 40
23.0
 40
23.0
 40
23.0
 40
24.0
 40
24.0
 40
24.0
 40
25.0
 40
25.0
 40
25.0
 40
26.0
 40
26.0
 40
26.0
 40
27.0
 40
27.0
 40
27.0
 40
28.0
 40
28.0
 40
28.0
 40
29.0
 40
29.0
 40
29.0
 40
30.0
 40
30.0
 40
30.0
 40
31.0
 40
31.0
 40
31.0
 40
32.0
 40
32.0
 40
32.0
 40
33.0
 40
33.0
 40
33.0
 40
34.0
 40
34.0
 40
34.0
 40
35.0
 40
35.0
 40
35.0
 40
36.0
 40
36.0
 40
36.0
 40
37.0
 40
37.0
 40
37.0
 40
38.0
 40
38.0
 40
38.0
 40
39.0
 40
39.0
 40
39.0
 40
40.0
 40
40.0
 40
40.0
 40
41.0
 40
41.0
 40
41.0
 40
42.0
 40
42.0
 40
42.0
 40
43.0
 40
43.0
 40
43.0
 40
44.0
 40
44.0
 40
44.0
 40
45.0
 40
45.0
 40
45.0
 40
46.0
 40
46.0
 40
46.0
 40
47.0
 40
47.0
 40
47.0
 40
48.0
 40
48.0
 40
48.0
 40
49.0
 40
49.0
 40
49.0
 40
50.0
 40
50.0
 40
50.0
 40
51.0
 40
51.0
 40
51.0
 40
52.0
 40
52.0
 40
52.0
 40
53.0
 40
53.0
 40
53.0
 40
54.0
 40
54.0
 40
54.0
 40
55.0
 40
55.0
 40
55.0
 40
56.0
 40
56.0
 40
56.0
 40
57.0
 40
57.0
 40
57.0
 40
58.0
 40
58.0
 40
58.0
 40
59.0
 40
59.0
 40
59.0
 40
60.0
 40
60.0
 40
60.0
 40
61.0
 40
61.0
 40
61.0
 40
62.0
 40
62.0
 40
62.0
 40
63.0
 40
63.0
 40
63.0
 40
64.0
 40
64.0
 40
64.0
 40
65.0
 40
65.0
 40
65.0
 40
66.0
 40
66.0
 40
66.0
 40
67.0
 40
67.0
 40
67.0
 40
68.0
 40
68.0
 40
68.0
 40
69.0
 40
69.0
 40
69.0
 40
70.0
 40
70.0
 40
70.0
 40
71.0
 40
71.0
 40
71.0
 40
72.0
 40
72.0
 40
72.0
 40
73.0
 40
73.0
 40
73.0
 40
74.0
 40
74.0
 40
74.0
 40
75.0
 40
75.0
 40
75.0
 40
76.0
 40
76.0
 40
76.0
 40
77.0
 40
77.0
 40
77.0
 40
78.0
 40
78.0
 40
78.0
 40
79.0
 40
79.0
 40
79.0
 40
80.0
 40
80.0
 40
80.0
 40
81.0
 40
81.0
 40
81.0
 40
82.0
 40
82.0
 40
82.0
 40
83.0
 40
83.0
 40
83.0
 40
84.0
 40
84.0
 40
84.0
 40
85.0
 40
85.0
 40
85.0
 40
86.0
 40
86.0
 40
86.0
 40
86.0
 10
18.30249831298094
 20
9.764547991611751
 30
0.0
 10
18.09739990533253
 20
9.234474722238527
 30
0.0
 10
17.78383717609543
 20
8.738465645426722
 30
0.0
 10
17.36173634001671
 20
8.276545356260433
 30
0.0
 10
17.02559532342839
 20
7.924024004649724
 30
0.0
 10
16.57058626460906
 20
7.534585430630819
 30
0.0
 10
15.9967091635584
 20
7.108278824373838
 30
0.0
 10
15.61137797844897
 20
6.829542727408119
 30
0.0
 10
15.12769105138208
 20
6.554889414532566
 30
0.0
 10
14.54559919218856
 20
6.284343480832559
 30
0.0
 10
13.86512699595315
 20
5.981012298985284
 30
0.0
 10
13.36092776861272
 20
5.751441776698259
 30
0.0
 10
13.03300151016726
 20
5.595681104141284
 30
0.0
 10
13.1723818526718
 20
5.562895855993694
 30
0.0
 10
13.34454744249519
 20
5.554681097643242
 30
0.0
 10
13.54949827963805
 20
5.571086019259407
 30
0.0
 10
13.65606877973902
 20
5.57927618252512
 30
0.0
 10
13.82004420650364
 20
5.59978848331651
 30
0.0
 10
14.04139996484812
 20
5.6325737314641
 30
0.0
 10
14.19716063346988
 20
5.665358979611689
 30
0.0
 10
15.09079842499133
 20
5.800631946461692
 30
0.0
 10
16.72226414924364
 20
6.03839263201443
 30
0.0
 10
17.07478549194917
 20
6.103987723394349
 30
0.0
 10
17.30435600843684
 20
6.017904926307779
 30
0.0
 10
17.41092650853781
 20
5.780144240755041
 30
0.0
 10
17.48471176131931
 20
5.558788476818468
 30
0.0
 10
17.39043880334869
 20
5.345647471232347
 30
0.0
 10
17.12808303954187
 20
5.14067203382752
 30
0.0
 10
16.86572727573504
 20
4.919316269890947
 30
0.0
 10
16.53369363821831
 20
4.706150669220407
 30
0.0
 10
16.13198212699135
 20
4.501199826899999
 30
0.0
 10
16.09098212152902
 20
4.493009663634286
 30
0.0
 10
15.72205585762154
 20
4.341331775167798
 30
0.0
 10
15.0252033352686
 20
4.046190756585914
 30
0.0
 10
14.00039995938611
 20
3.611669391978801
 30
0.0
 10
13.0494064313692
 20
3.460016098597373
 30
0.0
 10
12.1721735610497
 20
3.59118168627215
 30
0.0
 10
12.18857848225165
 20
3.492801346744642
 30
0.0
 10
12.22547110864208
 20
3.423123471274558
 30
0.0
 10
12.28285144022195
 20
3.382123464776195
 30
0.0
 10
12.30744652448266
 20
3.365718543160351
 30
0.0
 10
12.35663669300344
 20
3.3452308374537
 30
0.0
 10
12.43042194578494
 20
3.320635752572144
 30
0.0
 10
12.97151379951612
 20
3.181255406546594
 30
0.0
 10
13.29944005796158
 20
3.107470151901283
 30
0.0
 10
13.41422531620541
 20
3.099279988635571
 30
0.0
 10
13.78315158011289
 20
3.02549473399026
 30
0.0
 10
14.11926938386444
 20
3.005007028283609
 30
0.0
 10
14.42262377088596
 20
3.037792276430878
 30
0.0
 10
15.06209596165903
 20
3.095172609460024
 30
0.0
 10
15.61959273659216
 20
3.013197191549001
 30
0.0
 10
16.09508950060061
 20
2.791841427612428
 30
0.0
 10
16.42301575904575
 20
2.636080755055774
 30
0.0
 10
16.46401576450808
 20
2.418807775209687
 30
0.0
 10
16.21806492190321
 20
2.140071678243968
 30
0.0
 10
16.09508950060061
 20
2.008906090569191
 30
0.0
 10
15.95981653716765
 20
1.898228208601065
 30
0.0
 10
15.81224603160466
 20
1.808038032339269
 30
0.0
 10
15.64827060484004
 20
1.709657692812082
 30
0.0
 10
15.48021239408793
 20
1.660467523048327
 30
0.0
 10
15.30804680426455
 20
1.660467523048327
 30
0.0
 10
15.20966646722234
 20
1.652277359782615
 30
0.0
 10
14.76284757146177
 20
1.594897026753469
 30
0.0
 10
13.96761471206663
 20
1.488301928875509
 30
0.0
 10
13.42652285833577
 20
1.406326510964486
 30
0.0
 10
12.97562117858771
 20
1.394028968523547
 30
0.0
 10
12.61488507773868
 20
1.451409301552693
 30
0.0
 10
12.33612572993156
 20
1.525194556198003
 30
0.0
 10
12.1229833925286
 20
1.570277346786852
 30
0.0
 10
11.97541288696561
 20
1.586682268403017
 30
0.0
 10
11.72946204436041
 20
1.63587243816645
 30
0.0
 10
11.51221366508751
 20
1.656384738958162
 30
0.0
 10
11.32364315406218
 20
1.648169980607389
 30
0.0
 10
11.23345298007906
 20
1.648169980607389
 30
0.0
 10
11.16785919804464
 20
1.648169980607389
 30
0.0
 10
11.12688247997809
 20
1.648169980607389
 30
0.0
 10
11.06128739025536
 20
1.648169980607389
 30
0.0
 10
11.00801443774708
 20
1.619467516550286
 30
0.0
 10
10.96701443228506
 20
1.562087183520819
 30
0.0
 10
10.94241934802435
 20
1.480111765609796
 30
0.0
 10
10.97112181135633
 20
1.418624053405103
 30
0.0
 10
11.05309722719659
 20
1.377624046907382
 30
0.0
 10
11.31545299100342
 20
1.26283878576403
 30
0.0
 10
11.69665352300403
 20
1.086590407500725
 30
0.0
 10
12.19676864531041
 20
0.8488297219483082
 30
0.0
 10
12.63948016199939
 20
0.6438788796275788
 30
0.0
 10
13.03710888923885
 20
0.5167960760432883
 30
0.0
 10
13.3896302319447
 20
0.467605906279534
 30
0.0
 10
13.53720073750801
 20
0.4348206581322652
 30
0.0
 10
13.72577124853334
 20
0.4184157365157798
 30
0.0
 10
13.95531716993659
 20
0.4184157365157798
 30
0.0
 10
14.2668631022642
 20
0.4102255732503881
 30
0.0
 10
14.45540901820512
 20
0.4020108148996153
 30
0.0
 10
14.52100410792817
 20
0.3938206516339027
 30
0.0
 10
14.84074020331486
 20
0.3692255667523465
 30
0.0
 10
15.01701317220951
 20
0.2462501423432818
 30
0.0
 10
15.04979841952899
 20
0.0248943784063879
 30
0.0
 10
15.06620334073094
 20
-0.0980810460026767
 30
0.0
 10
15.02931071434019
 20
-0.2005687647050902
 30
0.0
 10
14.93912054035675
 20
-0.2825441826164341
 30
0.0
 10
14.92271561915512
 20
-0.2989491042322778
 30
0.0
 10
14.83252684543759
 20
-0.3604368164369706
 30
0.0
 10
14.66857461349116
 20
-0.4670073192301915
 30
0.0
 10
14.30783851264212
 20
-0.6965532464321562
 30
0.0
 10
13.89793683835672
 20
-0.8195286708412209
 30
0.0
 10
13.4388204004658
 20
-0.8359335924577063
 30
0.0
 10
13.07808429961677
 20
-0.8687188406049751
 30
0.0
 10
12.64356429095438
 20
-0.8318262132821594
 30
0.0
 10
12.13528093465895
 20
-0.7252557104892593
 30
0.0
 10
11.64337924944888
 20
-0.6104704493455864
 30
0.0
 10
11.2211554379487
 20
-0.5448999530507279
 30
0.0
 10
10.86863409524285
 20
-0.5284950314345634
 30
0.0
 10
10.98339606143088
 20
-0.7088507888730948
 30
0.0
 10
11.15147756423848
 20
-0.8523385140732291
 30
0.0
 10
11.37283332258328
 20
-0.9589090168667709
 30
0.0
 10
11.50399890694433
 20
-1.032694271512081
 30
0.0
 10
11.70486696010001
 20
-1.13107461103959
 30
0.0
 10
11.97541288696561
 20
-1.254050035448975
 30
0.0
 10
12.27055389809191
 20
-1.393430381473884
 30
0.0
 10
12.73375311996968
 20
-1.594273844618745
 30
0.0
 10
13.36503514768431
 20
-1.85662961505336
 30
0.0
 10
13.49620073204567
 20
-1.922224706433279
 30
0.0
 10
13.57820074297003
 20
-1.96320011784626
 30
0.0
 10
13.61098599028951
 20
-1.979605039462745
 30
0.0
 10
13.69296140612945
 20
-2.045200130842344
 30
0.0
 10
13.72166386946175
 20
-2.123068169578461
 30
0.0
 10
13.69706878520104
 20
-2.213258345839936
 30
0.0
 10
13.68066386399941
 20
-2.352638691865486
 30
0.0
 10
13.56587997402285
 20
-2.479696900365037
 30
0.0
 10
13.35273760555395
 20
-2.59448216150839
 30
0.0
 10
13.03300151016726
 20
-2.73386250753394
 30
0.0
 10
12.69686049357925
 20
-2.78713546138786
 30
0.0
 10
12.34433915087308
 20
-2.75435021324027
 30
0.0
 10
12.08198338706658
 20
-2.72156496509268
 30
0.0
 10
11.75405712862112
 20
-2.631374788831205
 30
0.0
 10
11.36053578045293
 20
-2.483804279540264
 30
0.0
 10
11.12277510090681
 20
-2.385423940012755
 30
0.0
 10
10.94652672709562
 20
-2.307531306192219
 30
0.0
 10
10.8317414688521
 20
-2.250150973162752
 30
0.0
 10
10.61857587356638
 20
-2.159960796900956
 30
0.0
 10
10.42592257855356
 20
-2.106687843047036
 30
0.0
 10
10.25375698873017
 20
-2.090282921430871
 30
0.0
 10
10.25375698873017
 20
-2.18866326095838
 30
0.0
 10
10.28654223604933
 20
-2.274746058044629
 30
0.0
 10
10.35213732577206
 20
-2.348531312689939
 30
0.0
 10
10.40132749429316
 20
-2.373126397572138
 30
0.0
 10
10.47100536800307
 20
-2.418209188160345
 30
0.0
 10
10.56119554198651
 20
-2.483804279540264
 30
0.0
 10
10.68417096328911
 20
-2.557589534185574
 30
0.0
 10
10.87274147431444
 20
-2.664160036978474
 30
0.0
 10
11.12688247997809
 20
-2.803540383004024
 30
0.0
 10
11.34823823832289
 20
-2.942920729029253
 30
0.0
 10
11.52040382814628
 20
-3.078169100794517
 30
0.0
 10
11.64337924944888
 20
-3.209359283554034
 30
0.0
 10
11.77454483380992
 20
-3.365119956110688
 30
0.0
 10
11.8565448447346
 20
-3.471715053988648
 30
0.0
 10
11.88933009205375
 20
-3.529095387018436
 30
0.0
 10
11.96311534483557
 20
-3.660260974692892
 30
0.0
 10
11.97130550789434
 20
-3.787343778277504
 30
0.0
 10
11.91392517631447
 20
-3.910319202686568
 30
0.0
 10
11.88113992899499
 20
-4.008699542213756
 30
0.0
 10
11.79505713408314
 20
-4.090674960124779
 30
0.0
 10
11.65567679157891
 20
-4.156270051504698
 30
0.0
 10
11.59008170185618
 20
-4.189055299651966
 30
0.0
 10
11.47121365962517
 20
-4.213650384534165
 30
0.0
 10
11.29904806980179
 20
-4.230055306150008
 30
0.0
 10
10.77436113727224
 20
-4.320245482411804
 30
0.0
 10
10.29064961512092
 20
-4.197270058002739
 30
0.0
 10
9.847938098431628
 20
-3.861129032922493
 30
0.0
 10
9.700367592868957
 20
-3.746343771779141
 30
0.0
 10
9.606071308048332
 20
-3.676665896308736
 30
0.0
 10
9.565094629436002
 20
-3.65207081142718
 30
0.0
 10
9.442119208133402
 20
-3.578285556781549
 30
0.0
 10
9.315036407759532
 20
-3.541392929459054
 30
0.0
 10
9.183870823398168
 20
-3.541392929459054
 30
0.0
 10
9.23306099191895
 20
-3.67255851713351
 30
0.0
 10
9.310953623772038
 20
-3.81193886315906
 30
0.0
 10
9.41752412387269
 20
-3.959509372450002
 30
0.0
 10
9.573284792494766
 20
-4.148079888238986
 30
0.0
 10
9.659367587406617
 20
-4.254650391031885
 30
0.0
 10
9.675772508608246
 20
-4.279245475913762
 30
0.0
 10
9.782343008708896
 20
-4.459601233352294
 30
0.0
 10
9.847938098431628
 20
-4.586684036936905
 30
0.0
 10
9.87253318269234
 20
-4.660469291582215
 30
0.0
 10
9.913509869071476
 20
-4.808039800873157
 30
0.0
 10
9.876617241748338
 20
-4.94331276772316
 30
0.0
 10
9.761855303519775
 20
-5.066288192132546
 30
0.0
 10
9.622474961015548
 20
-5.213858701423167
 30
0.0
 10
9.425714286931775
 20
-5.304048877684963
 30
0.0
 10
9.171573281267811
 20
-5.336834125832553
 30
0.0
 10
8.925622438662932
 20
-5.369619373980142
 30
0.0
 10
8.737051927637282
 20
-5.320429204216388
 30
0.0
 10
8.605886343276238
 20
-5.189263616541611
 30
0.0
 10
8.138579742326552
 20
-4.79574225843254
 30
0.0
 10
7.798355941751058
 20
-4.492386481499563
 30
0.0
 10
7.585190346465014
 20
-4.279245475913762
 30
0.0
 10
7.224454245616301
 20
-3.902129039420856
 30
0.0
 10
6.966205860881066
 20
-3.520905223752402
 30
0.0
 10
6.81044519225899
 20
-3.135574028908723
 30
0.0
 10
6.744850102536259
 20
-2.94700351311974
 30
0.0
 10
6.625982060305251
 20
-2.84043301032684
 30
0.0
 10
6.453816470481868
 20
-2.815837925444642
 30
0.0
 10
6.552196807523755
 20
-3.242144531701623
 30
0.0
 10
6.736659939477494
 20
-3.647963432251954
 30
0.0
 10
7.007205866343406
 20
-4.033294627095633
 30
0.0
 10
7.285941956267761
 20
-4.426815985204704
 30
0.0
 10
7.445810003960788
 20
-4.656361912406669
 30
0.0
 10
7.486810009423127
 20
-4.721957003786267
 30
0.0
 10
7.626190351927353
 20
-4.94331276772316
 30
0.0
 10
7.650785436187745
 20
-5.119585741071527
 30
0.0
 10
7.560595262204623
 20
-5.250751328746303
 30
0.0
 10
7.495000172481892
 20
-5.332726746657006
 30
0.0
 10
7.40891737757004
 20
-5.373726753155368
 30
0.0
 10
7.302346877469388
 20
-5.373726753155368
 30
0.0
 10
7.236751787746657
 20
-5.373726753155368
 30
0.0
 10
7.146562819865114
 20
-5.353214452363657
 30
0.0
 10
7.031800950603797
 20
-5.312239040950676
 30
0.0
 10
6.53168569781947
 20
-5.181073453275898
 30
0.0
 10
6.052104959254913
 20
-4.885932434694015
 30
0.0
 10
5.592988521363991
 20
-4.426815985204704
 30
0.0
 10
5.502798347380869
 20
-4.312030724061352
 30
0.0
 10
5.433120473670644
 20
-4.230055306150008
 30
0.0
 10
5.383930305149861
 20
-4.180865136386575
 30
0.0
 10
5.293740131166418
 20
-4.090674960124779
 30
0.0
 10
5.187169631065766
 20
-4.049699548711477
 30
0.0
 10
5.064194209763166
 20
-4.05788971197719
 30
0.0
 10
5.05598060490941
 20
-4.205460221268773
 30
0.0
 10
5.088789294023558
 20
-4.344840567293681
 30
0.0
 10
5.162574546805053
 20
-4.476006154968458
 30
0.0
 10
5.211764715326157
 20
-4.566196331230254
 30
0.0
 10
5.289657347179245
 20
-4.67684961811332
 30
0.0
 10
5.396227847279897
 20
-4.808039800873157
 30
0.0
 10
5.691368858405879
 20
-5.152370989218795
 30
0.0
 10
5.925022158881043
 20
-5.390131674771533
 30
0.0
 10
6.097187748704425
 20
-5.52129726244631
 30
0.0
 10
6.564494349654112
 20
-5.857438287526235
 30
0.0
 10
6.945718155691946
 20
-6.291935057048608
 30
0.0
 10
7.240859166817928
 20
-6.82483676118355
 30
0.0
 10
7.470405088221179
 20
-7.25114336743989
 30
0.0
 10
7.667165762305595
 20
-7.784045071574832
 30
0.0
 10
7.831141189070213
 20
-8.423517278502674
 30
0.0
 10
7.888521520649761
 20
-8.653063205704317
 30
0.0
 10
7.913116604910473
 20
-8.927716518580192
 30
0.0
 10
7.904926441851709
 20
-9.247452622043632
 30
0.0
 10
7.896736278792944
 20
-9.41961821621645
 30
0.0
 10
7.863926436389369
 20
-9.690164149916457
 30
0.0
 10
7.806546104809822
 20
-10.05909042314429
 30
0.0
 10
7.740951015087091
 20
-10.526397035899
 30
0.0
 10
7.794248562679465
 20
-10.91991839400839
 30
0.0
 10
7.96641415250317
 20
-11.23965449747183
 30
0.0
 10
8.433720753452535
 20
-12.06769722018865
 30
0.0
 10
9.159275739137454
 20
-13.03509569384565
 30
0.0
 10
10.14307910955793
 20
-14.14187451352819
 30
0.0
 10
10.52019553652417
 20
-14.55180079325343
 30
0.0
 10
11.06539476932695
 20
-14.79364426289665
 30
0.0
 10
11.77865221288151
 20
-14.86742951754196
 30
0.0
 10
12.19253829081737
 20
-14.90375645791256
 30
0.0
 10
12.77463015001089
 20
-15.18453394692352
 30
0.0
 10
13.52490319537766
 20
-15.70981117474465
 30
0.0
  0
SPLINE
  5
4E
330
1F
100
AcDbEntity
  8
Layer 1
 62
     1
370
    35
100
AcDbSpline
210
0.0
220
0.0
230
1.0
 70
     8
 71
     3
 72
   167
 73
   163
 74
     0
 42
0.0000000001
 43
0.0000000001
 12
1.0
 22
0.0
 32
0.0
 13
1.0
 23
0.0
 33
0.0
 40
0.0
 40
0.0
 40
0.0
 40
0.0
 40
1.0
 40
1.0
 40
1.0
 40
2.0
 40
2.0
 40
2.0
 40
3.0
 40
3.0
 40
3.0
 40
4.0
 40
4.0
 40
4.0
 40
5.0
 40
5.0
 40
5.0
 40
6.0
 40
6.0
 40
6.0
 40
7.0
 40
7.0
 40
7.0
 40
8.0
 40
8.0
 40
8.0
 40
9.0
 40
9.0
 40
9.0
 40
10.0
 40
10.0
 40
10.0
 40
11.0
 40
11.0
 40
11.0
 40
12.0
 40
12.0
 40
12.0
 40
13.0
 40
13.0
 40
13.0
 40
14.0
 40
14.0
 40
14.0
 40
15.0
 40
15.0
 40
15.0
 40
16.0
 40
16.0
 40
16.0
 40
17.0
 40
17.0
 40
17.0
 40
18.0
 40
18.0
 40
18.0
 40
19.0
 40
19.0
 40
19.0
 40
20.0
 40
20.0
 40
20.0
 40
21.0
 40
21.0
 40
21.0
 40
22.0
 40
22.0
 40
22.0
 40
23.0
 40
23.0
 40
23.0
 40
24.0
 40
24.0
 40
24.0
 40
25.0
 40
25.0
 40
25.0
 40
26.0
 40
26.0
 40
26.0
 40
27.0
 40
27.0
 40
27.0
 40
28.0
 40
28.0
 40
28.0
 40
29.0
 40
29.0
 40
29.0
 40
30.0
 40
30.0
 40
30.0
 40
31.0
 40
31.0
 40
31.0
 40
32.0
 40
32.0
 40
32.0
 40
33.0
 40
33.0
 40
33.0
 40
34.0
 40
34.0
 40
34.0
 40
35.0
 40
35.0
 40
35.0
 40
36.0
 40
36.0
 40
36.0
 40
37.0
 40
37.0
 40
37.0
 40
38.0
 40
38.0
 40
38.0
 40
39.0
 40
39.0
 40
39.0
 40
40.0
 40
40.0
 40
40.0
 40
41.0
 40
41.0
 40
41.0
 40
42.0
 40
42.0
 40
42.0
 40
43.0
 40
43.0
 40
43.0
 40
44.0
 40
44.0
 40
44.0
 40
45.0
 40
45.0
 40
45.0
 40
46.0
 40
46.0
 40
46.0
 40
47.0
 40
47.0
 40
47.0
 40
48.0
 40
48.0
 40
48.0
 40
49.0
 40
49.0
 40
49.0
 40
50.0
 40
50.0
 40
50.0
 40
51.0
 40
51.0
 40
51.0
 40
52.0
 40
52.0
 40
52.0
 40
53.0
 40
53.0
 40
53.0
 40
54.0
 40
54.0
 40
54.0
 40
54.0
 10
9.577392171566038
 20
-18.37222911320303
 30
0.0
 10
9.530882867229552
 20
-18.16385955408395
 30
0.0
 10
9.498098885416942
 20
-17.93842100605721
 30
0.0
 10
9.47901183452415
 20
-17.69586427895269
 30
0.0
 10
9.462606913322201
 20
-17.53188884804559
 30
0.0
 10
9.454416750263759
 20
-17.17526011725901
 30
0.0
 10
9.454416750263759
 20
-16.62597808659297
 30
0.0
 10
9.454416750263759
 20
-16.18326655871982
 30
0.0
 10
9.429821666003367
 20
-15.82663782793356
 30
0.0
 10
9.380631497482263
 20
-15.55609189423324
 30
0.0
 10
9.339631492019922
 20
-15.30192628706433
 30
0.0
 10
9.23306099191895
 20
-15.05189265415572
 30
0.0
 10
9.060895402095568
 20
-14.80594180533727
 30
0.0
 10
8.96251506505336
 20
-14.66656145931236
 30
0.0
 10
8.786242096158386
 20
-14.46569340108212
 30
0.0
 10
8.532101090494741
 20
-14.20336222573256
 30
0.0
 10
8.072984652603822
 20
-13.71146052809598
 30
0.0
 10
7.421214919700396
 20
-13.19907112475275
 30
0.0
 10
6.576791891784147
 20
-12.66616942061813
 30
0.0
 10
6.019295116851659
 20
-12.31362347392204
 30
0.0
 10
5.687261479334608
 20
-11.7561512799906
 30
0.0
 10
5.580690979233956
 20
-10.9937036486537
 30
0.0
 10
5.523310647654087
 20
-10.5181822775479
 30
0.0
 10
5.269145046906026
 20
-10.04268550152781
 30
0.0
 10
4.818243367157967
 20
-9.567188725507712
 30
0.0
 10
4.375531850468994
 20
-9.099882112753011
 30
0.0
 10
3.912332628590899
 20
-8.817038636611745
 30
0.0
 10
3.428621106439266
 20
-8.718658297084236
 30
0.0
 10
2.838339084187301
 20
-8.612063199206275
 30
0.0
 10
2.608769659167452
 20
-8.862121427199952
 30
0.0
 10
2.739958747145093
 20
-9.468808385980205
 30
0.0
 10
2.789148915666197
 20
-9.706569071532943
 30
0.0
 10
2.920314500027561
 20
-9.989412547673886
 30
0.0
 10
3.133480095313283
 20
-10.31733881440336
 30
0.0
 10
3.371240774859718
 20
-10.68626508763088
 30
0.0
 10
3.518811280422709
 20
-10.96091840050611
 30
0.0
 10
3.576191612002578
 20
-11.14127415794464
 30
0.0
 10
3.707357196363621
 20
-11.55117584258513
 30
0.0
 10
3.842630159796577
 20
-11.88731686766538
 30
0.0
 10
3.982010502300803
 20
-12.1496726381
 30
0.0
 10
4.178771176384898
 20
-12.48581366317992
 30
0.0
 10
4.408317097788149
 20
-12.76865713932087
 30
0.0
 10
4.670672861594976
 20
-12.99820306652283
 30
0.0
 10
4.785458119838811
 20
-13.09658340605034
 30
0.0
 10
4.887921240868192
 20
-13.23185637290066
 30
0.0
 10
4.978111414851314
 20
-13.40402196707284
 30
0.0
 10
5.019087977586916
 20
-13.49421214333528
 30
0.0
 10
5.088789294023558
 20
-13.66227035833191
 30
0.0
 10
5.187169631065766
 20
-13.908221207151
 30
0.0
 10
5.351145057830704
 20
-14.33452781340734
 30
0.0
 10
5.687261479334608
 20
-14.95759509871902
 30
0.0
 10
6.195568085746313
 20
-15.77744765816981
 30
0.0
 10
6.712064855217102
 20
-16.66287071391578
 30
0.0
 10
6.658767307624728
 20
-17.47040113584089
 30
0.0
 10
6.035700038052966
 20
-18.20006351903021
 30
0.0
 10
5.847129527027955
 20
-18.43779960949821
 30
0.0
 10
5.642178689885095
 20
-18.51569224331875
 30
0.0
 10
5.420822931540608
 20
-18.4337168254074
 30
0.0
 10
5.25684750477567
 20
-18.38452665564397
 30
0.0
 10
5.121574541342714
 20
-18.39271681890968
 30
0.0
 10
5.015004041242383
 20
-18.45831191028928
 30
0.0
 10
4.949408951519331
 20
-18.49928732170258
 30
0.0
 10
4.879731077809427
 20
-18.59358487713961
 30
0.0
 10
4.805945825027932
 20
-18.74115538643055
 30
0.0
 10
4.674780240666568
 20
-19.01170132013055
 30
0.0
 10
4.539507277233612
 20
-19.17975953512815
 30
0.0
 10
4.400126934729706
 20
-19.24535462650806
 30
0.0
 10
4.260746592225159
 20
-19.31094971788798
 30
0.0
 10
4.035308049893178
 20
-19.31913988115337
 30
0.0
 10
3.723762117565569
 20
-19.26994971138994
 30
0.0
 10
3.568001448943813
 20
-19.25354478977378
 30
0.0
 10
3.45732356977157
 20
-19.27405709056517
 30
0.0
 10
3.391728480048839
 20
-19.33143742359463
 30
0.0
 10
2.957207126418309
 20
-19.80693419961473
 30
0.0
 10
2.436627572960346
 20
-19.84793420611277
 30
0.0
 10
1.829940629506433
 20
-19.4544128480037
 30
0.0
 10
1.485609449859347
 20
-19.91352929749269
 30
0.0
 10
1.124873349010634
 20
-20.18405063610795
 30
0.0
 10
0.7477569220440701
 20
-20.26605064910404
 30
0.0
 10
0.3870208211953568
 20
-20.35624082536583
 30
0.0
 10
-0.0392857742919898
 20
-20.26194326992881
 30
0.0
 10
-0.5311874595023882
 20
-19.98320717296309
 30
0.0
 10
-0.7607333809056396
 20
-19.85201699020326
 30
0.0
 10
-0.9451965128593786
 20
-19.765934193117
 30
0.0
 10
-1.084576855363605
 20
-19.72495878170371
 30
0.0
 10
-1.297742450649327
 20
-19.66757844867424
 30
0.0
 10
-1.506800666863779
 20
-19.67576861193995
 30
0.0
 10
-1.711751504006318
 20
-19.74955386658558
 30
0.0
 10
-1.851131846510865
 20
-19.79874403634934
 30
0.0
 10
-1.974107267813465
 20
-19.76595878820175
 30
0.0
 10
-2.080677767914116
 20
-19.65117352705839
 30
0.0
 10
-2.359413857838472
 20
-19.33962758686003
 30
0.0
 10
-2.71195979562842
 20
-19.21256937836047
 30
0.0
 10
-3.138266391116088
 20
-19.26994971138994
 30
0.0
 10
-3.359622149460254
 20
-19.2945447962715
 30
0.0
 10
-3.593275449935418
 20
-19.22486692080141
 30
0.0
 10
-3.839226292540296
 20
-19.06089148989431
 30
0.0
 10
-3.97041554672248
 20
-18.98710623524867
 30
0.0
 10
-4.130259924595007
 20
-18.90102343816243
 30
0.0
 10
-4.318830435620018
 20
-18.80264309863524
 30
0.0
 10
-4.318830435620018
 20
-18.80264309863524
 30
0.0
 10
-4.810732120830416
 20
-18.55669224981679
 30
0.0
 10
-4.810732120830416
 20
-18.55669224981679
 30
0.0
 10
-5.187848547796658
 20
-18.35171681241196
 30
0.0
 10
-5.429716606414363
 20
-18.09346842115225
 30
0.0
 10
-5.536287106515336
 20
-17.78194707603894
 30
0.0
 10
-5.642857606615988
 20
-17.48680605745706
 30
0.0
 10
-5.634667443557544
 20
-17.11377240505432
 30
0.0
 10
-5.511692022254945
 20
-16.66287071391578
 30
0.0
 10
-5.421501848271501
 20
-16.31032476721969
 30
0.0
 10
-5.224741174187727
 20
-15.8676378344316
 30
0.0
 10
-4.921410000002659
 20
-15.33473613029698
 30
0.0
 10
-4.560673899153945
 20
-14.71164424990057
 30
0.0
 10
-4.331127977750694
 20
-14.28123026446868
 30
0.0
 10
-4.232747640708486
 20
-14.04349417400068
 30
0.0
 10
-4.117962382464651
 20
-13.76475807703496
 30
0.0
 10
-3.900714003191435
 20
-13.33434409160276
 30
0.0
 10
-3.580977907805061
 20
-12.7522522177047
 30
0.0
 10
-3.269431975477131
 20
-12.21935051356976
 30
0.0
 10
-3.056290975275507
 20
-11.7930439073131
 30
0.0
 10
-2.941505717031672
 20
-11.47330780384934
 30
0.0
 10
-2.597174537384586
 20
-10.54688474160565
 30
0.0
 10
-2.40041386330049
 20
-9.71884201888882
 30
0.0
 10
-2.351223694779707
 20
-8.989204230784564
 30
0.0
 10
-2.326628610518995
 20
-8.76784846684799
 30
0.0
 10
-2.359413857838472
 20
-8.628468120822761
 30
0.0
 10
-2.449604031821915
 20
-8.571087787793294
 30
0.0
 10
-2.556198166017434
 20
-8.51370745476447
 30
0.0
 10
-2.703745037485558
 20
-8.546492702911419
 30
0.0
 10
-2.892315548510889
 20
-8.669468127320483
 30
0.0
 10
-3.285836896678758
 20
-8.890823891257376
 30
0.0
 10
-3.617870534195809
 20
-9.194155073104973
 30
0.0
 10
-3.8884164610614
 20
-9.579486267948331
 30
0.0
 10
-4.101582056347122
 20
-9.899222371412092
 30
0.0
 10
-4.28193780922959
 20
-10.30914865113765
 30
0.0
 10
-4.429508314792582
 20
-10.80924051203994
 30
0.0
 10
-4.454103399052973
 20
-10.86662084506909
 30
0.0
 10
-4.478698483313365
 20
-10.95270364215566
 30
0.0
 10
-4.503293567574077
 20
-11.06748890329901
 30
0.0
 10
-4.536078814893234
 20
-11.1576790795608
 30
0.0
 10
-4.54837635702359
 20
-11.23965449747183
 30
0.0
 10
-4.540186193964825
 20
-11.31343975211746
 30
0.0
 10
-4.474591104242094
 20
-11.88731686766538
 30
0.0
 10
-4.728756704990156
 20
-12.32183823227249
 30
0.0
 10
-5.302633806040493
 20
-12.6169792508547
 30
0.0
 10
-5.605964980225561
 20
-12.77273992341103
 30
0.0
 10
-5.933915833754797
 20
-12.98590552408157
 30
0.0
 10
-6.286437176460648
 20
-13.25645145778222
 30
0.0
 10
-6.393007676561621
 20
-13.33842687569324
 30
0.0
 10
-6.70044622981796
 20
-13.58848510368692
 30
0.0
 10
-7.208752836229984
 20
-14.00660154667787
 30
0.0
 10
-8.102366032667017
 20
-14.7444540931329
 30
0.0
 10
-8.48358983870453
 20
-15.67085256029185
 30
0.0
 10
-8.352424254343488
 20
-16.78584613832485
 30
0.0
 10
-8.303234085822384
 20
-17.22036750293228
 30
0.0
 10
-8.286829164620757
 20
-17.81473232418653
 30
0.0
 10
-8.303234085822384
 20
-18.56898979225773
 30
0.0
 10
-8.311424248881147
 20
-18.65096521016875
 30
0.0
 10
-8.331936549154367
 20
-18.74526276560577
 30
0.0
 10
-8.364721796473523
 20
-18.85183326839867
 30
0.0
 10
-8.370772187201668
 20
-18.86395864524547
 30
0.0
 10
-8.376920958266846
 20
-18.87832217481639
 30
0.0
 10
-8.383168109669057
 20
-18.89487466694196
 30
0.0
  0
SPLINE
  5
4F
330
1F
100
AcDbEntity
  8
Layer 1
 62
     1
370
    35
100
AcDbSpline
210
0.0
220
0.0
230
1.0
 70
     8
 71
     3
 72
    23
 73
    19
 74
     0
 42
0.0000000001
 43
0.0000000001
 12
1.0
 22
0.0
 32
0.0
 13
1.0
 23
0.0
 33
0.0
 40
0.0
 40
0.0
 40
0.0
 40
0.0
 40
1.0
 40
1.0
 40
1.0
 40
2.0
 40
2.0
 40
2.0
 40
3.0
 40
3.0
 40
3.0
 40
4.0
 40
4.0
 40
4.0
 40
5.0
 40
5.0
 40
5.0
 40
6.0
 40
6.0
 40
6.0
 40
6.0
 10
-16.51184284932608
 20
12.40237084518794
 30
0.0
 10
-15.92561962441729
 20
13.18535537240097
 30
0.0
 10
-15.27999866257904
 20
13.92935669007647
 30
0.0
 10
-14.57498057225175
 20
14.63437479821443
 30
0.0
 10
-12.66475416299067
 20
16.54460125573128
 30
0.0
 10
-10.47170887981838
 20
18.02030634864134
 30
0.0
 10
-7.995795532566045
 20
19.06149007694397
 30
0.0
 10
-5.437906769473128
 20
20.15186397501035
 30
0.0
 10
-2.752935206006662
 20
20.69706322158591
 30
0.0
 10
0.0590945627498974
 20
20.69706322158591
 30
0.0
 10
2.862934168448013
 20
20.69706322158591
 30
0.0
 10
5.543798352843209
 20
20.15186397501035
 30
0.0
 10
8.101687115935803
 20
19.06149007694397
 30
0.0
 10
10.57760046318814
 20
18.02030634864134
 30
0.0
 10
12.77064574636075
 20
16.54460125573128
 30
0.0
 10
14.68087215562151
 20
14.63437479821443
 30
0.0
 10
15.10740010686702
 20
14.20784683619319
 30
0.0
 10
15.51321899716557
 20
13.76717670036625
 30
0.0
 10
15.89832882651651
 20
13.31238898581578
 30
0.0
  0
SPLINE
  5
50
330
1F
100
AcDbEntity
  8
Layer 1
 62
     1
370
    35
100
AcDbSpline
210
0.0
220
0.0
230
1.0
 70
     8
 71
     3
 72
     8
 73
     4
 74
     0
 42
0.0000000001
 43
0.0000000001
 12
1.0
 22
0.0
 32
0.0
 13
1.0
 23
0.0
 33
0.0
 40
0.0
 40
0.0
 40
0.0
 40
0.0
 40
1.0
 40
1.0
 40
1.0
 40
1.0
 10
17.21416583445372
 20
11.57843550164666
 30
0.0
 10
17.42723304940241
 20
11.25985536717239
 30
0.0
 10
17.63218535753636
 20
10.93601188453308
 30
0.0
 10
17.8290429409664
 20
10.60692964881444
 30
0.0
  0
SPLINE
  5
51
330
1F
100
AcDbEntity
  8
Layer 1
 62
     1
370
    35
100
AcDbSpline
210
0.0
220
0.0
230
1.0
 70
     8
 71
     3
 72
    20
 73
    16
 74
     0
 42
0.0000000001
 43
0.0000000001
 12
1.0
 22
0.0
 32
0.0
 13
1.0
 23
0.0
 33
0.0
 40
0.0
 40
0.0
 40
0.0
 40
0.0
 40
1.0
 40
1.0
 40
1.0
 40
2.0
 40
2.0
 40
2.0
 40
3.0
 40
3.0
 40
3.0
 40
4.0
 40
4.0
 40
4.0
 40
5.0
 40
5.0
 40
5.0
 40
5.0
 10
18.30249831298094
 20
9.764547991611751
 30
0.0
 10
18.59921340949976
 20
9.21125696211008
 30
0.0
 10
18.87180072835894
 20
8.641462630652642
 30
0.0
 10
19.12028486464289
 20
8.055189592324501
 30
0.0
 10
20.20246857210525
 20
5.489110601348384
 30
0.0
 10
20.74356042583643
 20
2.804138970053367
 30
0.0
 10
20.74356042583643
 20
0.0002992935248317
 30
0.0
 10
20.74356042583643
 20
-2.803540383004024
 30
0.0
 10
20.20246857210525
 20
-5.488512014299041
 30
0.0
 10
19.12028486464289
 20
-8.054591005274839
 30
0.0
 10
18.07088640449968
 20
-10.53050441507422
 30
0.0
 10
16.59109856488228
 20
-12.7235497536476
 30
0.0
 10
14.68087215562151
 20
-14.63377621116477
 30
0.0
 10
14.30542819438483
 20
-15.00919558680071
 30
0.0
 10
13.92012160435982
 20
-15.36786570963253
 30
0.0
 10
13.52490319537766
 20
-15.70981117474465
 30
0.0
  0
SPLINE
  5
52
330
1F
100
AcDbEntity
  8
Layer 1
 62
     1
370
    35
100
AcDbSpline
210
0.0
220
0.0
230
1.0
 70
     8
 71
     3
 72
    17
 73
    13
 74
     0
 42
0.0000000001
 43
0.0000000001
 12
1.0
 22
0.0
 32
0.0
 13
1.0
 23
0.0
 33
0.0
 40
0.0
 40
0.0
 40
0.0
 40
0.0
 40
1.0
 40
1.0
 40
1.0
 40
2.0
 40
2.0
 40
2.0
 40
3.0
 40
3.0
 40
3.0
 40
4.0
 40
4.0
 40
4.0
 40
4.0
 10
9.577392171566038
 20
-18.37222911320303
 30
0.0
 10
9.09611556275644
 20
-18.61999999830246
 30
0.0
 10
8.604213877546684
 20
-18.84954592550475
 30
0.0
 10
8.101687115935803
 20
-19.06089148989431
 30
0.0
 10
5.543798352843209
 20
-20.15126538796036
 30
0.0
 10
2.862934168448013
 20
-20.69646463453624
 30
0.0
 10
0.0590945627498974
 20
-20.69646463453624
 30
0.0
 10
-2.752935206006662
 20
-20.69646463453624
 30
0.0
 10
-5.437906769473128
 20
-20.15126538796036
 30
0.0
 10
-7.995795532566045
 20
-19.06089148989431
 30
0.0
 10
-8.126075693893794
 20
-19.00609364077756
 30
0.0
 10
-8.255199886261572
 20
-18.95075469979334
 30
0.0
 10
-8.383168109669057
 20
-18.89487466694196
 30
0.0
  0
SPLINE
  5
53
330
1F
100
AcDbEntity
  8
Layer 1
 62
     1
370
    35
100
AcDbSpline
210
0.0
220
0.0
230
1.0
 70
     8
 71
     3
 72
    20
 73
    16
 74
     0
 42
0.0000000001
 43
0.0000000001
 12
1.0
 22
0.0
 32
0.0
 13
1.0
 23
0.0
 33
0.0
 40
0.0
 40
0.0
 40
0.0
 40
0.0
 40
1.0
 40
1.0
 40
1.0
 40
2.0
 40
2.0
 40
2.0
 40
3.0
 40
3.0
 40
3.0
 40
4.0
 40
4.0
 40
4.0
 40
5.0
 40
5.0
 40
5.0
 40
5.0
 10
-11.64201677418618
 20
-17.07483838568658
 30
0.0
 10
-12.6837661631243
 20
-16.36103983224595
 30
0.0
 10
-13.66139616739518
 20
-15.54733604401531
 30
0.0
 10
-14.57498057225175
 20
-14.63377621116477
 30
0.0
 10
-16.48520637239928
 20
-12.7235497536476
 30
0.0
 10
-17.9649942493995
 20
-10.53050441507422
 30
0.0
 10
-19.01439273605258
 20
-8.054591005274839
 30
0.0
 10
-20.09657647085324
 20
-5.488512014299041
 30
0.0
 10
-20.63766833825326
 20
-2.803540383004024
 30
0.0
 10
-20.63766833825326
 20
0.0002992935248317
 30
0.0
 10
-20.63766833825326
 20
2.804138970053367
 30
0.0
 10
-20.09657647085324
 20
5.489110601348384
 30
0.0
 10
-19.01439273605258
 20
8.055189592324501
 30
0.0
 10
-18.91884083128647
 20
8.280652735436622
 30
0.0
 10
-18.8204604917596
 20
8.504049891417797
 30
0.0
 10
-18.71925171747069
 20
8.72540565535437
 30
0.0
  0
SPLINE
  5
54
330
1F
100
AcDbEntity
  8
Layer 1
 62
     1
370
    35
100
AcDbSpline
210
0.0
220
0.0
230
1.0
 70
     8
 71
     3
 72
     8
 73
     4
 74
     0
 42
0.0000000001
 43
0.0000000001
 12
1.0
 22
0.0
 32
0.0
 13
1.0
 23
0.0
 33
0.0
 40
0.0
 40
0.0
 40
0.0
 40
0.0
 40
1.0
 40
1.0
 40
1.0
 40
1.0
 10
-18.25809387593614
 20
9.653870109643625
 30
0.0
 10
-18.09387249418036
 20
9.965120908822875
 30
0.0
 10
-17.92170690000754
 20
10.27051807780077
 30
0.0
 10
-17.74159709341768
 20
10.57003702149162
 30
0.0
  0
SPLINE
  5
55
330
1F
100
AcDbEntity
  8
Layer 1
 62
     1
370
    35
100
AcDbSpline
210
0.0
220
0.0
230
1.0
 70
    11
 71
     3
 72
    17
 73
    13
 74
     0
 42
0.0000000001
 43
0.0000000001
 12
1.0
 22
0.0
 32
0.0
 13
1.0
 23
0.0
 33
0.0
 40
0.0
 40
0.0
 40
0.0
 40
0.0
 40
1.0
 40
1.0
 40
1.0
 40
2.0
 40
2.0
 40
2.0
 40
3.0
 40
3.0
 40
3.0
 40
4.0
 40
4.0
 40
4.0
 40
4.0
 10
10.29803893199196
 20
-21.06259620140878
 30
0.0
 10
10.26346800165429
 20
-21.6137978846129
 30
0.0
 10
9.788605474137723
 20
-22.03260985953417
 30
0.0
 10
9.237403791008047
 20
-21.99803892920131
 30
0.0
 10
8.68620210787837
 20
-21.96346799886812
 30
0.0
 10
8.267390133020942
 20
-21.48860547129509
 30
0.0
 10
8.30196106335862
 20
-20.93740378809098
 30
0.0
 10
8.336531993696298
 20
-20.38620210488718
 30
0.0
 10
8.811394521213183
 20
-19.96739012996623
 30
0.0
 10
9.362596204342859
 20
-20.00196106029909
 30
0.0
 10
9.913797887472535
 20
-20.03653199063196
 30
0.0
 10
10.33260986232964
 20
-20.51139451820499
 30
0.0
 10
10.29803893199196
 20
-21.06259620140878
 30
0.0
  0
SPLINE
  5
56
330
1F
100
AcDbEntity
  8
Layer 1
 62
     1
370
    35
100
AcDbSpline
210
0.0
220
0.0
230
1.0
 70
    11
 71
     3
 72
    17
 73
    13
 74
     0
 42
0.0000000001
 43
0.0000000001
 12
1.0
 22
0.0
 32
0.0
 13
1.0
 23
0.0
 33
0.0
 40
0.0
 40
0.0
 40
0.0
 40
0.0
 40
1.0
 40
1.0
 40
1.0
 40
2.0
 40
2.0
 40
2.0
 40
3.0
 40
3.0
 40
3.0
 40
4.0
 40
4.0
 40
4.0
 40
4.0
 10
-8.730216186019344
 20
-20.17820536865715
 30
0.0
 10
-8.2763515464994
 20
-20.49288827855987
 30
0.0
 10
-8.163522461610853
 20
-21.11591916702385
 30
0.0
 10
-8.478205371471226
 20
-21.56978380648251
 30
0.0
 10
-8.7928882813316
 20
-22.02364844594117
 30
0.0
 10
-9.415919169810651
 20
-22.13647753074565
 30
0.0
 10
-9.869783809330597
 20
-21.82179462084293
 30
0.0
 10
-10.32364844885054
 20
-21.5071117109402
 30
0.0
 10
-10.43647753373845
 20
-20.88408082247623
 30
0.0
 10
-10.1217946238784
 20
-20.43021618301757
 30
0.0
 10
-9.807111714018022
 20
-19.97635154355891
 30
0.0
 10
-9.18408082553897
 20
-19.86352245875442
 30
0.0
 10
-8.730216186019344
 20
-20.17820536865715
 30
0.0
  0
SPLINE
  5
57
330
1F
100
AcDbEntity
  8
Layer 1
 62
     1
370
    35
100
AcDbSpline
210
0.0
220
0.0
230
1.0
 70
    11
 71
     3
 72
    17
 73
    13
 74
     0
 42
0.0000000001
 43
0.0000000001
 12
1.0
 22
0.0
 32
0.0
 13
1.0
 23
0.0
 33
0.0
 40
0.0
 40
0.0
 40
0.0
 40
0.0
 40
1.0
 40
1.0
 40
1.0
 40
2.0
 40
2.0
 40
2.0
 40
3.0
 40
3.0
 40
3.0
 40
4.0
 40
4.0
 40
4.0
 40
4.0
 10
-20.00196106043321
 20
9.237403791016389
 30
0.0
 10
-20.03653199077089
 20
8.686202107812274
 30
0.0
 10
-20.51139451828745
 20
8.267390132890998
 30
0.0
 10
-21.06259620141713
 20
8.301961063223864
 30
0.0
 10
-21.6137978845468
 20
8.336531993557049
 30
0.0
 10
-22.03260985940423
 20
8.811394521130083
 30
0.0
 10
-21.99803892906655
 20
9.362596204334196
 30
0.0
 10
-21.96346799872887
 20
9.913797887537989
 30
0.0
 10
-21.48860547121199
 20
10.33260986245894
 30
0.0
 10
-20.93740378808231
 20
10.29803893212608
 30
0.0
 10
-20.38620210495263
 20
10.26346800179321
 30
0.0
 10
-19.96739013009553
 20
9.788605474220182
 30
0.0
 10
-20.00196106043321
 20
9.237403791016389
 30
0.0
  0
SPLINE
  5
58
330
1F
100
AcDbEntity
  8
Layer 1
 62
     1
370
    35
100
AcDbSpline
210
0.0
220
0.0
230
1.0
 70
    11
 71
     3
 72
    17
 73
    13
 74
     0
 42
0.0000000001
 43
0.0000000001
 12
1.0
 22
0.0
 32
0.0
 13
1.0
 23
0.0
 33
0.0
 40
0.0
 40
0.0
 40
0.0
 40
0.0
 40
1.0
 40
1.0
 40
1.0
 40
2.0
 40
2.0
 40
2.0
 40
3.0
 40
3.0
 40
3.0
 40
4.0
 40
4.0
 40
4.0
 40
4.0
 10
21.99803892906687
 20
9.237403791016389
 30
0.0
 10
21.96346799872919
 20
8.686202107812274
 30
0.0
 10
21.48860547121263
 20
8.267390132890998
 30
0.0
 10
20.93740378808295
 20
8.301961063223864
 30
0.0
 10
20.38620210495328
 20
8.336531993557049
 30
0.0
 10
19.96739013009585
 20
8.811394521130083
 30
0.0
 10
20.00196106043353
 20
9.362596204334196
 30
0.0
 10
20.03653199077121
 20
9.913797887537989
 30
0.0
 10
20.51139451828809
 20
10.33260986245894
 30
0.0
 10
21.06259620141777
 20
10.29803893212608
 30
0.0
 10
21.61379788454744
 20
10.26346800179321
 30
0.0
 10
22.03260985940455
 20
9.788605474220182
 30
0.0
 10
21.99803892906687
 20
9.237403791016389
 30
0.0
  0
ENDSEC
  0
SECTION
  2
OBJECTS
  0
DICTIONARY
  5
C
330
0
100
AcDbDictionary
281
     1
  3
ACAD_GROUP
350
D
  3
ACAD_LAYOUT
350
1A
  3
ACAD_MATERIAL
350
3B
  3
ACAD_MLEADERSTYLE
350
5A
  3
ACAD_MLINESTYLE
350
17
  3
ACAD_PLOTSETTINGS
350
19
  3
ACAD_PLOTSTYLENAME
350
E
  3
ACAD_TABLESTYLE
350
59
  3
ACAD_VISUALSTYLE
350
2A
  0
SUN
  5
3F
330
29
100
AcDbSun
 90
        1
290
     0
 63
     7
421
 16777215
 40
1.0
291
     1
 91
  2455826
 92
 54000000
292
     0
 70
     2
 71
   256
280
     1
  0
DICTIONARY
  5
D
102
{ACAD_REACTORS
330
C
102
}
330
C
100
AcDbDictionary
281
     1
  0
DICTIONARY
  5
1A
102
{ACAD_REACTORS
330
C
102
}
330
C
100
AcDbDictionary
281
     1
  3
Layout1
350
1E
  3
Layout2
350
26
  3
Model
350
22
  0
DICTIONARY
  5
3B
102
{ACAD_REACTORS
330
C
102
}
330
C
100
AcDbDictionary
281
     1
  3
ByBlock
350
3D
  3
ByLayer
350
3C
  3
Global
350
3E
  0
DICTIONARY
  5
5A
102
{ACAD_REACTORS
330
C
102
}
330
C
100
AcDbDictionary
281
     1
  0
DICTIONARY
  5
17
102
{ACAD_REACTORS
330
C
102
}
330
C
100
AcDbDictionary
281
     1
  3
Standard
350
18
  0
DICTIONARY
  5
19
102
{ACAD_REACTORS
330
C
102
}
330
C
100
AcDbDictionary
281
     1
  0
ACDBDICTIONARYWDFLT
  5
E
102
{ACAD_REACTORS
330
C
102
}
330
C
100
AcDbDictionary
281
     1
  3
Normal
350
F
100
AcDbDictionaryWithDefault
340
F
  0
DICTIONARY
  5
59
102
{ACAD_REACTORS
330
C
102
}
330
C
100
AcDbDictionary
281
     1
  0
DICTIONARY
  5
2A
102
{ACAD_REACTORS
330
C
102
}
330
C
100
AcDbDictionary
281
     1
  3
2dWireframe
350
2F
  3
3D Hidden
350
31
  3
3dWireframe
350
30
  3
Basic
350
32
  3
Brighten
350
36
  3
ColorChange
350
3A
  3
Conceptual
350
34
  3
Dim
350
35
  3
Facepattern
350
39
  3
Flat
350
2B
  3
FlatWithEdges
350
2C
  3
Gouraud
350
2D
  3
GouraudWithEdges
350
2E
  3
Linepattern
350
38
  3
Realistic
350
33
  3
Thicken
350
37
  0
LAYOUT
  5
1E
102
{ACAD_REACTORS
330
1A
102
}
330
1A
100
AcDbPlotSettings
  1

  2
none_device
  4

  6

 40
0.0
 41
0.0
 42
0.0
 43
0.0
 44
0.0
 45
0.0
 46
0.0
 47
0.0
 48
0.0
 49
0.0
140
0.0
141
0.0
142
1.0
143
1.0
 70
   688
 72
     0
 73
     0
 74
     5
  7

 75
    16
 76
     0
 77
     2
 78
   300
147
1.0
148
0.0
149
0.0
100
AcDbLayout
  1
Layout1
 70
     1
 71
     1
 10
0.0
 20
0.0
 11
12.0
 21
9.0
 12
0.0
 22
0.0
 32
0.0
 14
1.000000000000000E+20
 24
1.000000000000000E+20
 34
1.000000000000000E+20
 15
-1.000000000000000E+20
 25
-1.000000000000000E+20
 35
-1.000000000000000E+20
146
0.0
 13
0.0
 23
0.0
 33
0.0
 16
1.0
 26
0.0
 36
0.0
 17
0.0
 27
1.0
 37
0.0
 76
     0
330
1B
  0
LAYOUT
  5
26
102
{ACAD_REACTORS
330
1A
102
}
330
1A
100
AcDbPlotSettings
  1

  2
none_device
  4

  6

 40
0.0
 41
0.0
 42
0.0
 43
0.0
 44
0.0
 45
0.0
 46
0.0
 47
0.0
 48
0.0
 49
0.0
140
0.0
141
0.0
142
1.0
143
1.0
 70
   688
 72
     0
 73
     0
 74
     5
  7

 75
    16
 76
     0
 77
     2
 78
   300
147
1.0
148
0.0
149
0.0
100
AcDbLayout
  1
Layout2
 70
     1
 71
     2
 10
0.0
 20
0.0
 11
0.0
 21
0.0
 12
0.0
 22
0.0
 32
0.0
 14
0.0
 24
0.0
 34
0.0
 15
0.0
 25
0.0
 35
0.0
146
0.0
 13
0.0
 23
0.0
 33
0.0
 16
1.0
 26
0.0
 36
0.0
 17
0.0
 27
1.0
 37
0.0
 76
     0
330
23
  0
LAYOUT
  5
22
102
{ACAD_REACTORS
330
1A
102
}
330
1A
100
AcDbPlotSettings
  1

  2
none_device
  4

  6

 40
0.0
 41
0.0
 42
0.0
 43
0.0
 44
0.0
 45
0.0
 46
0.0
 47
0.0
 48
0.0
 49
0.0
140
0.0
141
0.0
142
1.0
143
1.0
 70
  1712
 72
     0
 73
     0
 74
     0
  7

 75
     0
 76
     0
 77
     2
 78
   300
147
1.0
148
0.0
149
0.0
100
AcDbLayout
  1
Model
 70
     1
 71
     0
 10
0.0
 20
0.0
 11
12.0
 21
9.0
 12
0.0
 22
0.0
 32
0.0
 14
1.000000000000000E+20
 24
1.000000000000000E+20
 34
1.000000000000000E+20
 15
-1.000000000000000E+20
 25
-1.000000000000000E+20
 35
-1.000000000000000E+20
146
0.0
 13
0.0
 23
0.0
 33
0.0
 16
1.0
 26
0.0
 36
0.0
 17
0.0
 27
1.0
 37
0.0
 76
     0
330
1F
331
29
  0
MATERIAL
  5
3D
102
{ACAD_REACTORS
330
3B
102
}
330
3B
100
AcDbMaterial
  1
ByBlock
 72
     1
 94
      127
  0
MATERIAL
  5
3C
102
{ACAD_REACTORS
330
3B
102
}
330
3B
100
AcDbMaterial
  1
ByLayer
 72
     1
 94
      127
  0
MATERIAL
  5
3E
102
{ACAD_REACTORS
330
3B
102
}
330
3B
100
AcDbMaterial
  1
Global
 72
     1
 94
      127
  0
MLINESTYLE
  5
18
102
{ACAD_REACTORS
330
17
102
}
330
17
100
AcDbMlineStyle
  2
Standard
 70
     0
  3

 62
   256
 51
90.0
 52
90.0
 71
     2
 49
0.5
 62
   256
  6
BYLAYER
 49
-0.5
 62
   256
  6
BYLAYER
  0
ACDBPLACEHOLDER
  5
F
102
{ACAD_REACTORS
330
E
102
}
330
E
  0
VISUALSTYLE
  5
2F
102
{ACAD_REACTORS
330
2A
102
}
330
2A
100
AcDbVisualStyle
  2
2dWireframe
 70
     4
177
     2
291
     0
 71
     0
176
     1
 72
     2
176
     1
 73
     0
176
     1
 90
        0
176
     1
 40
-0.6
176
     1
 41
-30.0
176
     1
 62
     5
 63
     7
421
 16777215
176
     1
 74
     1
176
     1
 91
        4
176
     1
 64
     7
176
     1
 65
   257
176
     1
 75
     1
176
     1
175
     1
176
     1
 42
1.0
176
     1
 92
        0
176
     1
 66
   257
176
     1
 43
1.0
176
     1
 76
     1
176
     1
 77
     6
176
     1
 78
     2
176
     1
 67
     7
176
     1
 79
     5
176
     1
170
     0
176
     1
171
     0
176
     1
290
     0
176
     1
 93
        1
176
     1
 44
0.0
176
     1
173
     0
176
     1
  0
VISUALSTYLE
  5
31
102
{ACAD_REACTORS
330
2A
102
}
330
2A
100
AcDbVisualStyle
  2
3D Hidden
 70
     6
177
     2
291
     0
 71
     1
176
     1
 72
     2
176
     1
 73
     2
176
     1
 90
        0
176
     1
 40
-0.6
176
     1
 41
-30.0
176
     1
 62
     5
 63
     7
421
 16777215
176
     1
 74
     2
176
     1
 91
        2
176
     1
 64
     7
176
     1
 65
   257
176
     1
 75
     2
176
     1
175
     1
176
     1
 42
40.0
176
     1
 92
        0
176
     1
 66
   257
176
     1
 43
1.0
176
     1
 76
     1
176
     1
 77
     6
176
     1
 78
     2
176
     1
 67
     7
176
     1
 79
     3
176
     1
170
     0
176
     1
171
     0
176
     1
290
     0
176
     1
 93
        1
176
     1
 44
0.0
176
     1
173
     0
176
     1
  0
VISUALSTYLE
  5
30
102
{ACAD_REACTORS
330
2A
102
}
330
2A
100
AcDbVisualStyle
  2
3dWireframe
 70
     5
177
     2
291
     0
 71
     0
176
     1
 72
     2
176
     1
 73
     0
176
     1
 90
        0
176
     1
 40
-0.6
176
     1
 41
-30.0
176
     1
 62
     5
 63
     7
421
 16777215
176
     1
 74
     1
176
     1
 91
        4
176
     1
 64
     7
176
     1
 65
   257
176
     1
 75
     1
176
     1
175
     1
176
     1
 42
1.0
176
     1
 92
        0
176
     1
 66
   257
176
     1
 43
1.0
176
     1
 76
     1
176
     1
 77
     6
176
     1
 78
     2
176
     1
 67
     7
176
     1
 79
     5
176
     1
170
     0
176
     1
171
     0
176
     1
290
     0
176
     1
 93
        1
176
     1
 44
0.0
176
     1
173
     0
176
     1
  0
VISUALSTYLE
  5
32
102
{ACAD_REACTORS
330
2A
102
}
330
2A
100
AcDbVisualStyle
  2
Basic
 70
     7
177
     2
291
     1
 71
     1
176
     1
 72
     0
176
     1
 73
     1
176
     1
 90
        0
176
     1
 40
-0.6
176
     1
 41
-30.0
176
     1
 62
     5
 63
     7
421
 16777215
176
     1
 74
     0
176
     1
 91
        4
176
     1
 64
     7
176
     1
 65
   257
176
     1
 75
     1
176
     1
175
     1
176
     1
 42
1.0
176
     1
 92
        8
176
     1
 66
     7
176
     1
 43
1.0
176
     1
 76
     1
176
     1
 77
     6
176
     1
 78
     2
176
     1
 67
     7
176
     1
 79
     5
176
     1
170
     0
176
     1
171
     0
176
     1
290
     0
176
     1
 93
        1
176
     1
 44
0.0
176
     1
173
     0
176
     1
  0
VISUALSTYLE
  5
36
102
{ACAD_REACTORS
330
2A
102
}
330
2A
100
AcDbVisualStyle
  2
Brighten
 70
    12
177
     2
291
     1
 71
     2
176
     1
 72
     2
176
     1
 73
     0
176
     1
 90
        0
176
     1
 40
-0.6
176
     1
 41
-30.0
176
     1
 62
     5
 63
     7
421
 16777215
176
     1
 74
     1
176
     1
 91
        4
176
     1
 64
     7
176
     1
 65
   257
176
     1
 75
     1
176
     1
175
     1
176
     1
 42
1.0
176
     1
 92
        8
176
     1
 66
     7
176
     1
 43
1.0
176
     1
 76
     1
176
     1
 77
     6
176
     1
 78
     2
176
     1
 67
     7
176
     1
 79
     5
176
     1
170
     0
176
     1
171
     0
176
     1
290
     0
176
     1
 93
        1
176
     1
 44
50.0
176
     1
173
     0
176
     1
  0
VISUALSTYLE
  5
3A
102
{ACAD_REACTORS
330
2A
102
}
330
2A
100
AcDbVisualStyle
  2
ColorChange
 70
    16
177
     2
291
     1
 71
     2
176
     1
 72
     2
176
     1
 73
     3
176
     1
 90
        0
176
     1
 40
-0.6
176
     1
 41
-30.0
176
     1
 62
     5
 63
     8
421
  8421504
176
     1
 74
     1
176
     1
 91
        4
176
     1
 64
     7
176
     1
 65
   257
176
     1
 75
     1
176
     1
175
     1
176
     1
 42
1.0
176
     1
 92
        8
176
     1
 66
     8
424
  8421504
176
     1
 43
1.0
176
     1
 76
     1
176
     1
 77
     6
176
     1
 78
     2
176
     1
 67
     7
176
     1
 79
     5
176
     1
170
     0
176
     1
171
     0
176
     1
290
     0
176
     1
 93
        1
176
     1
 44
0.0
176
     1
173
     0
176
     1
  0
VISUALSTYLE
  5
34
102
{ACAD_REACTORS
330
2A
102
}
330
2A
100
AcDbVisualStyle
  2
Conceptual
 70
     9
177
     2
291
     0
 71
     3
176
     1
 72
     2
176
     1
 73
     0
176
     1
 90
        0
176
     1
 40
-0.6
176
     1
 41
-30.0
176
     1
 62
     5
 63
     7
421
 16777215
176
     1
 74
     2
176
     1
 91
        2
176
     1
 64
     7
176
     1
 65
   257
176
     1
 75
     1
176
     1
175
     1
176
     1
 42
40.0
176
     1
 92
        8
176
     1
 66
     7
176
     1
 43
1.0
176
     1
 76
     1
176
     1
 77
     6
176
     1
 78
     2
176
     1
 67
     7
176
     1
 79
     3
176
     1
170
     0
176
     1
171
     0
176
     1
290
     0
176
     1
 93
        1
176
     1
 44
0.0
176
     1
173
     0
176
     1
  0
VISUALSTYLE
  5
35
102
{ACAD_REACTORS
330
2A
102
}
330
2A
100
AcDbVisualStyle
  2
Dim
 70
    11
177
     2
291
     1
 71
     2
176
     1
 72
     2
176
     1
 73
     0
176
     1
 90
        0
176
     1
 40
-0.6
176
     1
 41
-30.0
176
     1
 62
     5
 63
     7
421
 16777215
176
     1
 74
     1
176
     1
 91
        4
176
     1
 64
     7
176
     1
 65
   257
176
     1
 75
     1
176
     1
175
     1
176
     1
 42
1.0
176
     1
 92
        8
176
     1
 66
     7
176
     1
 43
1.0
176
     1
 76
     1
176
     1
 77
     6
176
     1
 78
     2
176
     1
 67
     7
176
     1
 79
     5
176
     1
170
     0
176
     1
171
     0
176
     1
290
     0
176
     1
 93
        1
176
     1
 44
-50.0
176
     1
173
     0
176
     1
  0
VISUALSTYLE
  5
39
102
{ACAD_REACTORS
330
2A
102
}
330
2A
100
AcDbVisualStyle
  2
Facepattern
 70
    15
177
     2
291
     1
 71
     2
176
     1
 72
     2
176
     1
 73
     0
176
     1
 90
        0
176
     1
 40
-0.6
176
     1
 41
-30.0
176
     1
 62
     5
 63
     7
421
 16777215
176
     1
 74
     1
176
     1
 91
        4
176
     1
 64
     7
176
     1
 65
   257
176
     1
 75
     1
176
     1
175
     1
176
     1
 42
1.0
176
     1
 92
        8
176
     1
 66
     7
176
     1
 43
1.0
176
     1
 76
     1
176
     1
 77
     6
176
     1
 78
     2
176
     1
 67
     7
176
     1
 79
     5
176
     1
170
     0
176
     1
171
     0
176
     1
290
     0
176
     1
 93
        1
176
     1
 44
0.0
176
     1
173
     0
176
     1
  0
VISUALSTYLE
  5
2B
102
{ACAD_REACTORS
330
2A
102
}
330
2A
100
AcDbVisualStyle
  2
Flat
 70
     0
177
     2
291
     1
 71
     2
176
     1
 72
     1
176
     1
 73
     1
176
     1
 90
        2
176
     1
 40
-0.6
176
     1
 41
30.0
176
     1
 62
     5
 63
     7
421
 16777215
176
     1
 74
     0
176
     1
 91
        4
176
     1
 64
     7
176
     1
 65
   257
176
     1
 75
     1
176
     1
175
     1
176
     1
 42
1.0
176
     1
 92
        8
176
     1
 66
     7
176
     1
 43
1.0
176
     1
 76
     1
176
     1
 77
     6
176
     1
 78
     2
176
     1
 67
     7
176
     1
 79
     5
176
     1
170
     0
176
     1
171
     0
176
     1
290
     0
176
     1
 93
       13
176
     1
 44
0.0
176
     1
173
     0
176
     1
  0
VISUALSTYLE
  5
2C
102
{ACAD_REACTORS
330
2A
102
}
330
2A
100
AcDbVisualStyle
  2
FlatWithEdges
 70
     1
177
     2
291
     1
 71
     2
176
     1
 72
     1
176
     1
 73
     1
176
     1
 90
        2
176
     1
 40
-0.6
176
     1
 41
30.0
176
     1
 62
     5
 63
     7
421
 16777215
176
     1
 74
     1
176
     1
 91
        4
176
     1
 64
     7
176
     1
 65
   257
176
     1
 75
     1
176
     1
175
     1
176
     1
 42
1.0
176
     1
 92
        0
176
     1
 66
   257
176
     1
 43
1.0
176
     1
 76
     1
176
     1
 77
     6
176
     1
 78
     2
176
     1
 67
     7
176
     1
 79
     5
176
     1
170
     0
176
     1
171
     0
176
     1
290
     0
176
     1
 93
       13
176
     1
 44
0.0
176
     1
173
     0
176
     1
  0
VISUALSTYLE
  5
2D
102
{ACAD_REACTORS
330
2A
102
}
330
2A
100
AcDbVisualStyle
  2
Gouraud
 70
     2
177
     2
291
     1
 71
     2
176
     1
 72
     2
176
     1
 73
     1
176
     1
 90
        2
176
     1
 40
-0.6
176
     1
 41
30.0
176
     1
 62
     5
 63
     7
421
 16777215
176
     1
 74
     0
176
     1
 91
        4
176
     1
 64
     7
176
     1
 65
   257
176
     1
 75
     1
176
     1
175
     1
176
     1
 42
1.0
176
     1
 92
        0
176
     1
 66
     7
176
     1
 43
1.0
176
     1
 76
     1
176
     1
 77
     6
176
     1
 78
     2
176
     1
 67
     7
176
     1
 79
     5
176
     1
170
     0
176
     1
171
     0
176
     1
290
     0
176
     1
 93
       13
176
     1
 44
0.0
176
     1
173
     0
176
     1
  0
VISUALSTYLE
  5
2E
102
{ACAD_REACTORS
330
2A
102
}
330
2A
100
AcDbVisualStyle
  2
GouraudWithEdges
 70
     3
177
     2
291
     1
 71
     2
176
     1
 72
     2
176
     1
 73
     1
176
     1
 90
        2
176
     1
 40
-0.6
176
     1
 41
30.0
176
     1
 62
     5
 63
     7
421
 16777215
176
     1
 74
     1
176
     1
 91
        4
176
     1
 64
     7
176
     1
 65
   257
176
     1
 75
     1
176
     1
175
     1
176
     1
 42
1.0
176
     1
 92
        0
176
     1
 66
   257
176
     1
 43
1.0
176
     1
 76
     1
176
     1
 77
     6
176
     1
 78
     2
176
     1
 67
     7
176
     1
 79
     5
176
     1
170
     0
176
     1
171
     0
176
     1
290
     0
176
     1
 93
       13
176
     1
 44
0.0
176
     1
173
     0
176
     1
  0
VISUALSTYLE
  5
38
102
{ACAD_REACTORS
330
2A
102
}
330
2A
100
AcDbVisualStyle
  2
Linepattern
 70
    14
177
     2
291
     1
 71
     2
176
     1
 72
     2
176
     1
 73
     0
176
     1
 90
        0
176
     1
 40
-0.6
176
     1
 41
-30.0
176
     1
 62
     5
 63
     7
421
 16777215
176
     1
 74
     1
176
     1
 91
        4
176
     1
 64
     7
176
     1
 65
   257
176
     1
 75
     7
176
     1
175
     7
176
     1
 42
1.0
176
     1
 92
        8
176
     1
 66
     7
176
     1
 43
1.0
176
     1
 76
     1
176
     1
 77
     6
176
     1
 78
     2
176
     1
 67
     7
176
     1
 79
     5
176
     1
170
     0
176
     1
171
     0
176
     1
290
     0
176
     1
 93
        1
176
     1
 44
0.0
176
     1
173
     0
176
     1
  0
VISUALSTYLE
  5
33
102
{ACAD_REACTORS
330
2A
102
}
330
2A
100
AcDbVisualStyle
  2
Realistic
 70
     8
177
     2
291
     0
 71
     2
176
     1
 72
     2
176
     1
 73
     0
176
     1
 90
        0
176
     1
 40
-0.6
176
     1
 41
-30.0
176
     1
 62
     5
 63
     7
421
 16777215
176
     1
 74
     1
176
     1
 91
        0
176
     1
 64
     7
176
     1
 65
   257
176
     1
 75
     1
176
     1
175
     1
176
     1
 42
1.0
176
     1
 92
        8
176
     1
 66
     8
424
  7895160
176
     1
 43
1.0
176
     1
 76
     1
176
     1
 77
     6
176
     1
 78
     2
176
     1
 67
     7
176
     1
 79
     5
176
     1
170
     0
176
     1
171
     0
176
     1
290
     0
176
     1
 93
       13
176
     1
 44
0.0
176
     1
173
     0
176
     1
  0
VISUALSTYLE
  5
37
102
{ACAD_REACTORS
330
2A
102
}
330
2A
100
AcDbVisualStyle
  2
Thicken
 70
    13
177
     2
291
     1
 71
     2
176
     1
 72
     2
176
     1
 73
     0
176
     1
 90
        0
176
     1
 40
-0.6
176
     1
 41
-30.0
176
     1
 62
     5
 63
     7
421
 16777215
176
     1
 74
     1
176
     1
 91
        4
176
     1
 64
     7
176
     1
 65
   257
176
     1
 75
     1
176
     1
175
     1
176
     1
 42
1.0
176
     1
 92
       12
176
     1
 66
     7
176
     1
 43
1.0
176
     1
 76
     1
176
     1
 77
     6
176
     1
 78
     2
176
     1
 67
     7
176
     1
 79
     5
176
     1
170
     0
176
     1
171
     0
176
     1
290
     0
176
     1
 93
        1
176
     1
 44
0.0
176
     1
173
     0
176
     1
  0
ENDSEC
  0
EOF
